<svg
       width="136"
       height="61px"
       viewBox="0 0 136 61"
       fill="none"
       xmlns="http://www.w3.org/2000/svg">
  <g id="Page-1" stroke="none" stroke-width="1" fill="white" fill-rule="evenodd">
    <g id="gene-logo-white" transform="translate(-1.000000, 0.000000)" fill-rule="nonzero">
      <path d="M26.73,56.25 L25.36,58.62 L26.73,60.99 L29.47,60.99 L30.84,58.62 L29.47,56.25 L26.73,56.25 Z M32.81,52.74 L31.44,55.11 L32.81,57.48 L35.56,57.48 L36.96,55.11 L35.56,52.74 L32.81,52.74 Z M20.64,52.74 L19.27,55.11 L20.64,57.48 L23.38,57.48 L24.75,55.11 L23.38,52.74 L20.64,52.74 Z M38.89,49.23 L37.52,51.6 L38.89,53.97 L41.63,53.97 L43,51.6 L41.63,49.23 L38.89,49.23 Z M26.72,49.23 L25.36,51.6 L26.73,53.97 L29.47,53.97 L30.84,51.6 L29.47,49.23 L26.72,49.23 Z M14.55,49.23 L13.19,51.59 L14.56,53.96 L17.3,53.96 L18.67,51.59 L17.3,49.22 L14.55,49.23 Z M44.96,45.71 L43.62,48.09 L44.96,50.46 L47.7,50.46 L49.07,48.09 L47.7,45.72 L44.96,45.71 Z M32.79,45.71 L31.42,48.08 L32.79,50.45 L35.53,50.45 L36.96,48.08 L35.59,45.71 L32.79,45.71 Z M20.62,45.71 L19.25,48.08 L20.62,50.45 L23.36,50.45 L24.73,48.08 L23.36,45.71 L20.62,45.71 Z M8.45,45.71 L7.11,48.07 L8.48,50.44 L11.22,50.44 L12.59,48.07 L11.22,45.7 L8.45,45.71 Z M51.04,42.21 L49.67,44.58 L51.04,46.95 L53.78,46.95 L55.15,44.58 L53.78,42.21 L51.04,42.21 Z M38.87,42.21 L37.5,44.58 L38.87,46.95 L41.61,46.95 L42.96,44.57 L41.59,42.2 L38.87,42.21 Z M26.7,42.21 L25.36,44.57 L26.73,46.89 L29.47,46.89 L30.84,44.52 L29.47,42.19 L26.7,42.21 Z M14.53,42.21 L13.16,44.58 L14.56,46.89 L17.3,46.89 L18.67,44.52 L17.3,42.19 L14.53,42.21 Z M2.35,42.21 L0.96,44.53 L2.38,46.89 L5.12,46.89 L6.49,44.52 L5.12,42.16 L2.35,42.21 Z M44.96,38.69 L43.59,41.06 L44.96,43.43 L47.7,43.43 L49.07,41.06 L47.72,38.69 L44.96,38.69 Z M20.62,38.69 L19.25,41.06 L20.62,43.43 L23.36,43.43 L24.73,41.06 L23.36,38.69 L20.62,38.69 Z M8.44,38.69 L7.09,41.02 L8.46,43.39 L11.2,43.39 L12.57,41.02 L11.2,38.65 L8.44,38.69 Z M51.05,35.21 L49.68,37.58 L51.07,39.89 L53.81,39.89 L55.18,37.52 L53.81,35.15 L51.05,35.21 Z M26.71,35.21 L25.36,37.54 L26.73,39.89 L29.47,39.89 L30.84,37.52 L29.47,35.15 L26.71,35.21 Z M14.53,35.21 L13.16,37.58 L14.54,39.89 L17.28,39.89 L18.65,37.52 L17.28,35.15 L14.53,35.21 Z M2.36,35.21 L0.96,37.51 L2.37,39.89 L5.11,39.89 L6.48,37.52 L5.11,35.13 L2.36,35.21 Z M44.96,31.66 L43.59,34.03 L44.96,36.4 L47.7,36.4 L49.07,34.03 L47.7,31.66 L44.96,31.66 Z M20.61,31.66 L19.26,34 L20.63,36.37 L23.37,36.37 L24.74,34 L23.37,31.63 L20.61,31.66 Z M8.44,31.66 L7.09,33.99 L8.46,36.36 L11.2,36.36 L12.57,33.99 L11.2,31.62 L8.44,31.66 Z M51.05,28.18 L49.68,30.55 L51.07,32.89 L53.81,32.89 L55.18,30.52 L53.81,28.15 L51.05,28.18 Z M26.7,28.18 L25.33,30.55 L26.71,32.89 L29.45,32.89 L30.82,30.52 L29.45,28.15 L26.7,28.18 Z M14.53,28.18 L13.16,30.55 L14.54,32.89 L17.28,32.89 L18.65,30.52 L17.28,28.15 L14.53,28.18 Z M2.36,28.18 L0.96,30.48 L2.37,32.89 L5.11,32.89 L6.48,30.52 L5.11,28.1 L2.36,28.18 Z M32.79,24.68 L31.42,27.05 L32.79,29.42 L35.53,29.42 L36.9,27.05 L35.53,24.68 L32.79,24.68 Z M20.62,24.68 L19.26,26.97 L20.63,29.34 L23.37,29.34 L24.74,26.97 L23.37,24.6 L20.62,24.68 Z M8.46,24.59 L7.09,26.96 L8.46,29.34 L11.2,29.34 L12.57,26.97 L11.19,24.59 L8.46,24.59 Z M38.88,21.09 L37.51,23.46 L38.88,25.83 L41.62,25.83 L42.96,23.46 L41.62,21.09 L38.88,21.09 Z M26.71,21.09 L25.34,23.46 L26.71,25.83 L29.45,25.83 L30.82,23.46 L29.45,21.09 L26.71,21.09 Z M14.54,21.09 L13.17,23.46 L14.54,25.83 L17.28,25.83 L18.65,23.46 L17.28,21.09 L14.54,21.09 Z M2.37,21.09 L0.96,23.45 L2.33,25.82 L5.11,25.82 L6.48,23.45 L5.11,21.08 L2.37,21.09 Z M44.96,17.57 L43.59,19.94 L44.96,22.32 L47.7,22.32 L49.07,19.95 L47.7,17.58 L44.96,17.57 Z M32.79,17.57 L31.42,19.94 L32.79,22.31 L35.53,22.31 L36.9,19.94 L35.53,17.57 L32.79,17.57 Z M20.62,17.57 L19.26,19.89 L20.63,22.26 L23.36,22.26 L24.73,19.89 L23.36,17.57 L20.62,17.57 Z M8.45,17.57 L7.09,19.89 L8.46,22.26 L11.2,22.26 L12.56,19.89 L11.19,17.52 L8.45,17.57 Z M51.04,14.07 L49.67,16.44 L51.04,18.81 L53.78,18.81 L55.15,16.44 L53.78,14.07 L51.04,14.07 Z M38.87,14.07 L37.5,16.44 L38.87,18.81 L41.61,18.81 L42.96,16.43 L41.59,14.06 L38.87,14.07 Z M26.7,14.07 L25.33,16.44 L26.7,18.81 L29.44,18.81 L30.81,16.44 L29.44,14.07 L26.7,14.07 Z M14.53,14.07 L13.16,16.44 L14.53,18.81 L17.27,18.81 L18.64,16.44 L17.27,14.07 L14.53,14.07 Z M2.36,14.07 L0.96,16.42 L2.37,18.79 L5.11,18.79 L6.48,16.42 L5.11,14.05 L2.36,14.07 Z M44.96,10.55 L43.59,12.89 L44.96,15.29 L47.7,15.29 L49.07,12.89 L47.7,10.52 L44.96,10.55 Z M32.79,10.55 L31.42,12.89 L32.79,15.26 L35.53,15.26 L36.9,12.89 L35.53,10.52 L32.79,10.55 Z M20.62,10.55 L19.25,12.89 L20.62,15.26 L23.36,15.26 L24.73,12.89 L23.36,10.54 L20.62,10.55 Z M8.45,10.55 L7.08,12.89 L8.45,15.26 L11.19,15.26 L12.56,12.89 L11.19,10.52 L8.45,10.55 Z M38.88,7.03 L37.51,9.4 L38.88,11.77 L41.62,11.77 L42.96,9.4 L41.61,7.03 L38.88,7.03 Z M26.71,7.03 L25.34,9.4 L26.71,11.77 L29.45,11.77 L30.82,9.4 L29.44,7.03 L26.71,7.03 Z M14.54,7.03 L13.17,9.39 L14.54,11.76 L17.28,11.76 L18.64,9.39 L17.27,7.02 L14.54,7.03 Z M32.79,3.51 L31.42,5.89 L32.79,8.26 L35.53,8.26 L36.9,5.89 L35.53,3.51 L32.79,3.51 Z M20.62,3.51 L19.25,5.89 L20.62,8.26 L23.36,8.26 L24.73,5.89 L23.36,3.51 L20.62,3.51 Z M26.7,0 L25.33,2.37 L26.7,4.74 L29.44,4.74 L30.81,2.37 L29.44,0 L26.7,0 Z" id="Shape"></path>
      <path d="M80.59,39.12 C81.8240579,38.6290471 82.9770218,37.9547992 84.01,37.12 L84.01,28.97 L75.67,28.97 L75.67,32.65 L79.24,32.65 L79.24,34.89 C78.3649513,35.4209429 77.352673,35.6818394 76.33,35.64 C75.6445462,35.6493049 74.9642757,35.5200535 74.33,35.26 C73.7502179,35.0306989 73.2204296,34.691091 72.77,34.26 C72.3294746,33.8055032 71.9888523,33.2639138 71.77,32.67 C71.5268125,32.0314819 71.404729,31.3532406 71.41,30.67 L71.41,30.62 C71.4045928,29.9562406 71.5268096,29.2976279 71.77,28.68 C72.0026981,28.0959945 72.3417744,27.560254 72.77,27.1 C73.1613295,26.6015899 73.6516217,26.1896083 74.21,25.89 C74.7839782,25.6272498 75.408768,25.4940979 76.04,25.5 C76.8516308,25.4848314 77.6578992,25.6345184 78.41,25.94 C79.1348312,26.2639105 79.80858,26.691741 80.41,27.21 L83.41,23.66 C82.4574765,22.841482 81.376246,22.185986 80.21,21.72 C78.880317,21.2247991 77.468523,20.9872376 76.05,21.02 C74.719035,21.0068965 73.3981024,21.2513879 72.16,21.74 C71.0089779,22.1921648 69.9613055,22.8724716 69.08,23.74 C67.2996711,25.5134664 66.3053879,27.9271251 66.32,30.44 L66.32,30.49 C66.3042977,31.7916898 66.5597148,33.0823974 67.07,34.28 C67.5464131,35.4116772 68.2510889,36.4329465 69.14,37.28 C70.0428257,38.1224262 71.1031019,38.7783022 72.26,39.21 C73.5134817,39.6777649 74.8421341,39.9116348 76.18,39.9 C77.704573,39.9262526 79.2195978,39.6544992 80.64,39.1" id="Shape"></path>
      <polygon id="Shape" points="86.09 39.56 100.77 39.56 100.77 35.29 91.03 35.29 91.03 32.42 99.73 32.42 99.73 28.45 91.03 28.45 91.03 25.71 100.64 25.71 100.64 21.43 86.09 21.43"></polygon>
      <polygon id="Shape" points="102.6 39.56 107.55 39.56 107.55 29.62 115.31 39.56 119.72 39.56 119.72 21.43 114.78 21.43 114.78 31.02 107.3 21.43 102.6 21.43"></polygon>
      <polygon id="Shape" points="121.67 39.56 136.35 39.56 136.35 35.29 126.62 35.29 126.62 32.42 135.32 32.42 135.32 28.45 126.62 28.45 126.62 25.71 136.23 25.71 136.23 21.43 121.67 21.43"></polygon>
    </g>
  </g>
</svg>
