<svg width="55" height="35" viewBox="0 0 55 35" fill="none" xmlns="http://www.w3.org/2000/svg">
<rect x="0.65625" width="54.1773" height="35" rx="6" fill="#A3FCE1"/>
<path d="M41.4045 15.0154L38.2302 21.1845H36.9151L38.101 18.8801L36.2384 15.0154H37.588L38.7855 17.604L40.0928 15.0154H41.4045ZM29.3259 17.2058C29.3259 16.4974 28.7584 15.9518 28.0618 15.9518C27.3651 15.9518 26.7977 16.4795 26.7977 17.2058C26.7977 17.9249 27.3651 18.4595 28.0618 18.4595C28.7584 18.4595 29.3259 17.9143 29.3259 17.2058ZM25.643 21.1845V15.0154H26.786V15.5833C27.1305 15.1815 27.643 14.9343 28.2537 14.9343C29.51 14.9343 30.4966 15.9074 30.4966 17.1944C30.4966 18.4815 29.4905 19.4623 28.226 19.4623C27.6391 19.4623 27.1577 19.2449 26.8215 18.876V21.1805H25.643V21.1845ZM34.6216 17.2058C34.6216 16.4681 34.0542 15.9518 33.3575 15.9518C32.6609 15.9518 32.093 16.4795 32.093 17.2058C32.093 17.9249 32.6609 18.4595 33.3575 18.4595C34.0542 18.4595 34.6216 17.9399 34.6216 17.2058ZM34.6294 19.3963V18.8279C34.285 19.2229 33.7724 19.4659 33.1618 19.4659C31.8856 19.4659 30.9188 18.5038 30.9188 17.2058C30.9188 15.9188 31.9249 14.938 33.189 14.938C33.7841 14.938 34.285 15.1851 34.6294 15.5687V15.0154H35.7725V19.3963H34.6294ZM23.5802 15.4433C23.5802 15.4433 23.8698 14.9343 24.5863 14.9343C24.8914 14.9343 25.0876 15.0337 25.0876 15.0337V16.1509C25.0876 16.1509 24.6567 15.9005 24.2613 15.9518C23.8663 16.0035 23.6157 16.3427 23.6157 16.7999V19.3959H22.4337V15.0154H23.5763V15.4429L23.5802 15.4433ZM50.2811 14.7682L48.9272 14.0382L47.5529 13.2972C46.6453 12.8066 45.51 13.4226 45.51 14.4107V14.5764C45.51 14.6689 45.561 14.7536 45.647 14.7979L46.2853 15.1408C46.3256 15.1623 46.3712 15.1735 46.4175 15.1732C46.4638 15.1729 46.5093 15.1612 46.5493 15.1392C46.5893 15.1172 46.6224 15.0856 46.6454 15.0478C46.6684 15.0099 46.6805 14.967 46.6803 14.9233V14.5284C46.6803 14.333 46.9033 14.2116 47.0835 14.3073L48.336 14.986L49.5845 15.6607C49.6256 15.6827 49.6599 15.7147 49.6837 15.7532C49.7075 15.7918 49.72 15.8356 49.72 15.8802C49.72 15.9248 49.7075 15.9686 49.6837 16.0071C49.6599 16.0456 49.6256 16.0776 49.5845 16.0996L48.336 16.7743L47.0835 17.4526C47.0425 17.4746 46.996 17.4861 46.9488 17.4859C46.9016 17.4857 46.8552 17.4738 46.8144 17.4514C46.7735 17.429 46.7397 17.3969 46.7161 17.3583C46.6926 17.3197 46.6803 17.276 46.6803 17.2315V17.0361C46.6803 16.0479 45.5455 15.4282 44.6375 15.9225L43.2632 16.6635L41.9092 17.3935C40.9974 17.8878 40.9974 19.1305 41.9092 19.6247L43.2636 20.3548L44.6375 21.0958C45.545 21.5864 46.6803 20.9704 46.6803 19.9822V19.8165C46.6809 19.7714 46.6685 19.7269 46.6443 19.6879C46.6202 19.6489 46.5853 19.6168 46.5433 19.595L45.9055 19.2522C45.8652 19.2306 45.8195 19.2193 45.7731 19.2195C45.7268 19.2197 45.6813 19.2315 45.6412 19.2535C45.6011 19.2755 45.5679 19.3071 45.5449 19.345C45.5219 19.3829 45.5099 19.4259 45.51 19.4696V19.8646C45.51 20.06 45.287 20.1813 45.1068 20.0856L43.8544 19.4069L42.6059 18.7323C42.5648 18.7101 42.5307 18.6782 42.507 18.6396C42.4833 18.6011 42.4708 18.5574 42.4708 18.5128C42.4708 18.4683 42.4833 18.4245 42.507 18.386C42.5307 18.3474 42.5648 18.3155 42.6059 18.2933L43.8548 17.6187L45.1068 16.9404C45.1479 16.9183 45.1943 16.9068 45.2416 16.907C45.2888 16.9072 45.3352 16.9191 45.376 16.9415C45.4168 16.9639 45.4507 16.996 45.4742 17.0346C45.4978 17.0732 45.5101 17.117 45.51 17.1615V17.3569C45.51 18.3451 46.6453 18.9647 47.5533 18.4705L48.9272 17.7294L50.2811 16.999C51.193 16.5015 51.193 15.2625 50.2811 14.7682ZM9.29413 17.7624C9.04391 18.7693 8.12426 19.4623 6.93451 19.4623C5.56022 19.4623 4.52734 18.4892 4.52734 17.2022C4.52734 15.9152 5.57621 14.9343 6.95395 14.9343C8.11648 14.9343 9.02446 15.6273 9.28678 16.6159H8.07715C7.86193 16.2209 7.43539 15.9595 6.96216 15.9595C6.27286 15.9595 5.69765 16.4941 5.69765 17.2022C5.69765 17.9102 6.27286 18.4448 6.96173 18.4448C7.19923 18.4466 7.4321 18.383 7.63172 18.2617C7.83135 18.1405 7.98902 17.9669 8.08536 17.7624H9.29413ZM9.83866 19.3923V13.2121H11.009V19.3927L9.83866 19.3923ZM12.77 17.4937C12.8521 18.1423 13.3452 18.5075 13.9676 18.5075C14.4611 18.5075 14.8405 18.2897 15.0635 17.9395H16.2615C15.9836 18.8687 15.099 19.4623 13.9365 19.4623C12.5315 19.4623 11.5492 18.5332 11.5492 17.2132C11.5492 15.8932 12.5903 14.938 13.9637 14.938C15.3492 14.938 16.3514 15.9005 16.3514 17.2132C16.3514 17.3089 16.3436 17.4045 16.3242 17.4933L12.77 17.4937ZM15.1029 16.8076C15.0208 16.2397 14.5277 15.8968 13.952 15.8968C13.3768 15.8968 12.9031 16.2287 12.7817 16.8076H15.1029ZM20.5313 19.3923V18.8243C20.1869 19.2192 19.6782 19.4623 19.0637 19.4623C17.7918 19.4623 16.825 18.4998 16.825 17.2022C16.825 15.9152 17.8268 14.9343 19.0913 14.9343C19.686 14.9343 20.1869 15.1778 20.5313 15.5646V15.0117H21.6744V19.3886H20.5313V19.3923ZM20.5196 17.2018C20.5196 16.4681 19.9522 15.9481 19.2555 15.9481C18.5589 15.9481 17.9915 16.4717 17.9915 17.2022C17.9915 17.9212 18.5589 18.4558 19.2555 18.4558C19.9522 18.4558 20.5196 17.9395 20.5196 17.2018Z" fill="black"/>
</svg>
