<svg width="12"
        height="12"
        viewBox="0 0 12 12"
        fill="none"
        xmlns="http://www.w3.org/2000/svg"
>
    <path
            d="M2.23529 2.91153V9.70565C2.23529 10.0333 2.36544 10.3475 2.5971 10.5791C2.82877 10.8108 3.14297 10.9409 3.47059 10.9409H8.41176C8.73938 10.9409 9.05359 10.8108 9.28525 10.5791C9.51691 10.3475 9.64706 10.0333 9.64706 9.70565V2.91153M4.08824 2.91153C4.08824 2.4201 4.28346 1.9488 4.63095 1.60131C4.97844 1.25381 5.44975 1.05859 5.94118 1.05859V1.05859C6.43261 1.05859 6.90391 1.25381 7.2514 1.60131C7.5989 1.9488 7.79412 2.4201 7.79412 2.91153V2.91153H4.08824ZM4.08824 2.91153H7.79412H4.08824ZM4.08824 2.91153H2.23529H4.08824ZM7.79412 2.91153H9.64706H7.79412ZM10.8824 2.91153H9.64706H10.8824ZM1 2.91153H2.23529H1Z"
            stroke="black"
            stroke-width="1.2"
            stroke-linecap="round"
            stroke-linejoin="round"
    />
</svg>