<svg width="55" height="35" viewBox="0 0 55 35" fill="none" xmlns="http://www.w3.org/2000/svg">
<rect x="1.125" y="0.5" width="53.1773" height="34" rx="5.5" fill="white" stroke="#D9D9D9"/>
<path fill-rule="evenodd" clip-rule="evenodd" d="M28.1016 25.0204C26.2572 26.5199 23.8646 27.4252 21.2502 27.4252C15.4166 27.4252 10.6875 22.9181 10.6875 17.3584C10.6875 11.7986 15.4166 7.2915 21.2502 7.2915C23.8646 7.2915 26.2572 8.19677 28.1016 9.69634C29.9461 8.19677 32.3387 7.2915 34.9531 7.2915C40.7867 7.2915 45.5158 11.7986 45.5158 17.3584C45.5158 22.9181 40.7867 27.4252 34.9531 27.4252C32.3387 27.4252 29.9461 26.5199 28.1016 25.0204Z" fill="#ED0006"/>
<path fill-rule="evenodd" clip-rule="evenodd" d="M28.1016 25.0204C30.3727 23.1739 31.8128 20.4264 31.8128 17.3584C31.8128 14.2903 30.3727 11.5428 28.1016 9.69634C29.946 8.19677 32.3386 7.2915 34.953 7.2915C40.7866 7.2915 45.5157 11.7986 45.5157 17.3584C45.5157 22.9181 40.7866 27.4252 34.953 27.4252C32.3386 27.4252 29.946 26.5199 28.1016 25.0204Z" fill="#F9A000"/>
<path fill-rule="evenodd" clip-rule="evenodd" d="M28.1018 25.0203C25.8307 23.1738 24.3906 20.4263 24.3906 17.3583C24.3906 14.2902 25.8307 11.5427 28.1018 9.69629C30.3729 11.5427 31.813 14.2902 31.813 17.3583C31.813 20.4263 30.3729 23.1738 28.1018 25.0203Z" fill="#FF5E00"/>
</svg>
