<svg width="55" height="35" viewBox="0 0 55 35" fill="none" xmlns="http://www.w3.org/2000/svg">
<rect x="0.800781" y="0.5" width="53.1773" height="34" rx="5.5" fill="white" stroke="#D9D9D9"/>
<path fill-rule="evenodd" clip-rule="evenodd" d="M16.7471 23.7101H13.465L11.0038 14.864C10.887 14.4571 10.6389 14.0974 10.2741 13.9278C9.36354 13.5017 8.36019 13.1626 7.26562 12.9916V12.651H12.5528C13.2825 12.651 13.8298 13.1626 13.921 13.7568L15.198 20.1378L18.4785 12.651H21.6694L16.7471 23.7101ZM23.4937 23.7101H20.394L22.9464 12.651H26.0461L23.4937 23.7101ZM30.0563 15.7147C30.1475 15.1191 30.6948 14.7785 31.3333 14.7785C32.3366 14.693 33.4296 14.864 34.3417 15.2887L34.889 12.9076C33.9769 12.567 32.9735 12.396 32.063 12.396C29.0545 12.396 26.8654 13.9278 26.8654 16.0538C26.8654 17.6712 28.416 18.5204 29.5106 19.032C30.6948 19.5421 31.1508 19.8827 31.0596 20.3928C31.0596 21.158 30.1475 21.4986 29.2369 21.4986C28.1424 21.4986 27.0478 21.2435 26.0461 20.8175L25.4988 23.2C26.5933 23.6246 27.7775 23.7956 28.8721 23.7956C32.2454 23.8797 34.3417 22.3493 34.3417 20.0523C34.3417 17.1596 30.0563 16.9901 30.0563 15.7147ZM45.1897 23.7101L42.7286 12.651H40.085C39.5377 12.651 38.9904 12.9916 38.808 13.5017L34.2505 23.7101H37.4414L38.0783 22.0942H41.9989L42.3637 23.7101H45.1897ZM40.541 15.6292L41.4516 19.7972H38.8992L40.541 15.6292Z" fill="#172B85"/>
</svg>
