<svg width="73" height="14" viewBox="0 0 73 14" fill="none" xmlns="http://www.w3.org/2000/svg">
    <path d="M57.8192 3.18823L52.8977 13.3954H50.8587L52.6973 9.58255L49.8094 3.18823H51.902L53.7587 7.47132L55.7856 3.18823H57.8192ZM39.0918 6.81249C39.0918 5.64033 38.212 4.73764 37.1319 4.73764C36.0518 4.73764 35.172 5.61069 35.172 6.81249C35.172 8.00216 36.0518 8.88666 37.1319 8.88666C38.212 8.88666 39.0918 7.98464 39.0918 6.81249ZM33.3816 13.3954V3.18823H35.1539V4.12798C35.6879 3.46308 36.4826 3.05418 37.4294 3.05418C39.3773 3.05418 40.907 4.66421 40.907 6.79362C40.907 8.92304 39.3471 10.5459 37.3865 10.5459C36.4766 10.5459 35.7301 10.1861 35.2088 9.57581V13.3887H33.3816V13.3954ZM47.3027 6.81249C47.3027 5.59183 46.4229 4.73764 45.3428 4.73764C44.2626 4.73764 43.3822 5.61069 43.3822 6.81249C43.3822 8.00216 44.2626 8.88666 45.3428 8.88666C46.4229 8.88666 47.3027 8.02708 47.3027 6.81249ZM47.3148 10.4367V9.49632C46.7807 10.1498 45.986 10.5519 45.0392 10.5519C43.0606 10.5519 41.5616 8.96009 41.5616 6.81249C41.5616 4.68307 43.1215 3.06024 45.0814 3.06024C46.0041 3.06024 46.7807 3.46915 47.3148 4.10373V3.18823H49.0871V10.4367H47.3148ZM30.1834 3.89624C30.1834 3.89624 30.6323 3.05418 31.7433 3.05418C32.2164 3.05418 32.5206 3.21855 32.5206 3.21855V5.06705C32.5206 5.06705 31.8525 4.65275 31.2394 4.73764C30.627 4.82319 30.2383 5.38434 30.2383 6.14085V10.4361H28.4057V3.18823H30.1774V3.89557L30.1834 3.89624ZM71.5822 2.77933L69.4829 1.57147L67.3521 0.345417C65.945 -0.466335 64.1848 0.552903 64.1848 2.18786V2.46204C64.1848 2.61495 64.2639 2.75507 64.3972 2.8285L65.3869 3.39572C65.4493 3.43135 65.52 3.44986 65.5918 3.4494C65.6636 3.44895 65.7341 3.42953 65.7961 3.39311C65.8581 3.35669 65.9095 3.30453 65.9452 3.24185C65.9808 3.17918 65.9995 3.10819 65.9993 3.03599V2.38254C65.9993 2.05919 66.345 1.85844 66.6245 2.01675L68.5663 3.13973L70.5021 4.25597C70.5659 4.29244 70.6189 4.34525 70.6559 4.40903C70.6928 4.47281 70.7122 4.54528 70.7122 4.61907C70.7122 4.69286 70.6928 4.76534 70.6559 4.82911C70.6189 4.89289 70.5659 4.94571 70.5021 4.98217L68.5663 6.09841L66.6245 7.22072C66.5608 7.25719 66.4888 7.27621 66.4155 7.27587C66.3423 7.27554 66.2704 7.25587 66.2071 7.21883C66.1438 7.18179 66.0913 7.12867 66.0548 7.06481C66.0183 7.00094 65.9992 6.92857 65.9993 6.85493V6.53157C65.9993 4.89662 64.2397 3.87132 62.8319 4.68913L60.7012 5.91518L58.6019 7.12304C57.188 7.94086 57.188 9.99684 58.6019 10.8147L60.7018 12.0225L62.8319 13.2486C64.2391 14.0603 65.9993 13.0411 65.9993 11.4061V11.1319C66.0002 11.0573 65.9809 10.9837 65.9435 10.9192C65.9061 10.8547 65.852 10.8015 65.7869 10.7655L64.7979 10.1983C64.7354 10.1625 64.6646 10.1438 64.5927 10.1442C64.5208 10.1446 64.4503 10.1639 64.3882 10.2004C64.326 10.2368 64.2746 10.2891 64.2389 10.3518C64.2032 10.4146 64.1845 10.4857 64.1848 10.558V11.2114C64.1848 11.5348 63.839 11.7355 63.5596 11.5772L61.6178 10.4543L59.682 9.33801C59.6184 9.3014 59.5655 9.24854 59.5287 9.18478C59.4919 9.12102 59.4725 9.04862 59.4725 8.97491C59.4725 8.9012 59.4919 8.8288 59.5287 8.76504C59.5655 8.70128 59.6184 8.64842 59.682 8.61181L61.6185 7.49557L63.5596 6.37327C63.6233 6.3368 63.6953 6.31778 63.7686 6.31811C63.8418 6.31844 63.9137 6.33811 63.977 6.37516C64.0403 6.4122 64.0928 6.46531 64.1293 6.52918C64.1657 6.59304 64.1849 6.66542 64.1848 6.73906V7.06241C64.1848 8.69737 65.945 9.72267 67.3528 8.90485L69.4829 7.6788L71.5822 6.47027C72.996 5.64707 72.996 3.59714 71.5822 2.77933ZM8.03331 7.73337C7.64535 9.39931 6.21947 10.5459 4.3748 10.5459C2.24402 10.5459 0.642578 8.93584 0.642578 6.80642C0.642578 4.67701 2.26881 3.05418 4.40495 3.05418C6.2074 3.05418 7.61519 4.20073 8.02192 5.83636H6.14643C5.81274 5.18292 5.15139 4.75043 4.41768 4.75043C3.34894 4.75043 2.45709 5.63494 2.45709 6.80642C2.45709 7.97791 3.34894 8.86241 4.41701 8.86241C4.78524 8.86536 5.1463 8.76007 5.45581 8.55948C5.76532 8.3589 6.00979 8.07176 6.15916 7.73337H8.03331ZM8.87758 10.43V0.204624H10.6921V10.4307L8.87758 10.43ZM13.4226 7.28876C13.5499 8.36189 14.3144 8.96616 15.2793 8.96616C16.0445 8.96616 16.6328 8.60575 16.9786 8.02641H18.836C18.4051 9.56369 17.0335 10.5459 15.2311 10.5459C13.0527 10.5459 11.5297 9.0086 11.5297 6.82461C11.5297 4.64063 13.1438 3.06024 15.2733 3.06024C17.4215 3.06024 18.9753 4.65275 18.9753 6.82461C18.9753 6.98292 18.9633 7.14123 18.9331 7.28809L13.4226 7.28876ZM17.0396 6.15365C16.9122 5.21391 16.1477 4.64669 15.2552 4.64669C14.3633 4.64669 13.629 5.19572 13.4407 6.15365H17.0396ZM25.4561 10.43V9.49026C24.9221 10.1437 24.1334 10.5459 23.1806 10.5459C21.2086 10.5459 19.7097 8.95336 19.7097 6.80642C19.7097 4.67701 21.2629 3.05418 23.2235 3.05418C24.1455 3.05418 24.9221 3.45702 25.4561 4.09699V3.18217H27.2284V10.4239H25.4561V10.43ZM25.4381 6.80575C25.4381 5.59183 24.5583 4.73157 23.4781 4.73157C22.398 4.73157 21.5182 5.59789 21.5182 6.80642C21.5182 7.99609 22.398 8.8806 23.4781 8.8806C24.5583 8.8806 25.4381 8.02641 25.4381 6.80575Z" fill="#4F5554"/>
</svg>
