<svg width="26" height="20" viewBox="0 0 26 20" fill="none" xmlns="http://www.w3.org/2000/svg">
    <path d="M12.0687 14.0983L12.2573 14.25C10.9791 15.0993 9.47617 15.5509 7.93965 15.5473C3.62914 15.5473 0.136719 12.0734 0.136719 7.78001C0.136719 3.49053 3.62915 0.0127319 7.93492 0.0127319C9.534 0.0127319 11.0211 0.487334 12.2541 1.30531C12.1934 1.35557 12.1354 1.40908 12.0805 1.46561C10.2369 3.05285 9.17664 5.3575 9.17664 7.78001C9.17664 10.2025 10.233 12.5072 12.0695 14.0983H12.0687ZM17.5831 0.0127319C16.0466 0.00802389 14.5433 0.457902 13.2639 1.30531C13.3262 1.35875 13.3877 1.41218 13.4374 1.46561C14.3481 2.24885 15.0788 3.2182 15.5799 4.30776C16.081 5.39733 16.3407 6.58158 16.3414 7.78001C16.3414 10.1994 15.285 12.5032 13.4485 14.0983C13.386 14.1493 13.3231 14.1999 13.2599 14.25C14.5379 15.0999 16.0409 15.5515 17.5776 15.5473C21.8881 15.5473 25.3805 12.0734 25.3805 7.78001C25.3805 3.49053 21.8888 0.0127319 17.5831 0.0127319ZM12.759 1.67855C11.83 2.40378 11.079 3.33015 10.5629 4.38743C10.0468 5.44472 9.77909 6.60516 9.78014 7.7808C9.7786 8.95708 10.046 10.1183 10.5622 11.1762C11.0783 12.2342 11.8296 13.1613 12.759 13.887C12.8623 13.8092 12.957 13.7275 13.0548 13.6418C13.8981 12.9139 14.5742 12.0137 15.0372 11.0023C15.5001 9.99101 15.7391 8.89228 15.7379 7.7808C15.7388 6.60518 15.4711 5.44478 14.9549 4.38751C14.4388 3.33025 13.6879 2.40386 12.759 1.67855Z" fill="#4F5554"/>
    <path d="M5.46831 19.5374V18.2386C5.46831 17.7406 5.16519 17.416 4.64562 17.416C4.38589 17.416 4.10446 17.5026 3.90961 17.784C3.75814 17.5459 3.5417 17.416 3.21698 17.416C3.00044 17.416 2.78409 17.4809 2.61084 17.719V17.4593H2.15625V19.5374H2.61084V18.3901C2.61084 18.0222 2.80569 17.8489 3.10881 17.8489C3.41173 17.8489 3.56339 18.0438 3.56339 18.3901V19.5374H4.01798V18.3901C4.01798 18.0222 4.23433 17.8489 4.51575 17.8489C4.81888 17.8489 4.97034 18.0438 4.97034 18.3901V19.5374H5.46831ZM12.2004 17.4593H11.4645V16.8316H11.0099V17.4593H10.5986V17.8705H11.0098V18.8231C11.0098 19.2993 11.2047 19.5807 11.7242 19.5807C11.9191 19.5807 12.1354 19.5158 12.2871 19.4292L12.1571 19.0395C12.0273 19.1261 11.8758 19.1478 11.7675 19.1478C11.5511 19.1478 11.4645 19.0179 11.4645 18.8014V17.8705H12.2004V17.4593ZM16.0536 17.4159C15.7939 17.4159 15.6207 17.5459 15.5125 17.719V17.4593H15.0579V19.5374H15.5125V18.3685C15.5125 18.0222 15.6639 17.8273 15.9454 17.8273C16.0319 17.8273 16.1402 17.849 16.2268 17.8706L16.3567 17.4377C16.2701 17.416 16.1402 17.416 16.0536 17.416V17.4159ZM10.2306 17.6325C10.0141 17.4809 9.71104 17.416 9.38632 17.416C8.86685 17.416 8.52054 17.6758 8.52054 18.0871C8.52054 18.4335 8.78027 18.6282 9.23486 18.6932L9.4513 18.7149C9.68944 18.7581 9.81931 18.8231 9.81931 18.9313C9.81931 19.0828 9.64616 19.1911 9.34303 19.1911C9.04001 19.1911 8.80187 19.0828 8.65031 18.9746L8.43386 19.3209C8.672 19.4941 8.99672 19.5807 9.32134 19.5807C9.92749 19.5807 10.2739 19.2993 10.2739 18.9096C10.2739 18.5416 9.99247 18.3468 9.55948 18.2819L9.34303 18.2602C9.14818 18.2385 8.99672 18.1953 8.99672 18.0655C8.99672 17.9139 9.14818 17.8273 9.38632 17.8273C9.64616 17.8273 9.90589 17.9355 10.0358 18.0005L10.2306 17.6325ZM22.3097 17.416C22.0498 17.416 21.8767 17.5459 21.7684 17.719V17.4593H21.3138V19.5374H21.7684V18.3685C21.7684 18.0222 21.92 17.8273 22.2013 17.8273C22.288 17.8273 22.3962 17.849 22.4828 17.8706L22.6127 17.4377C22.5261 17.416 22.3962 17.416 22.3097 17.416ZM16.5082 18.4983C16.5082 19.1261 16.9411 19.5807 17.6122 19.5807C17.9153 19.5807 18.1317 19.5158 18.3482 19.3426L18.1317 18.9746C17.9586 19.1045 17.7854 19.1694 17.5905 19.1694C17.2225 19.1694 16.9628 18.9096 16.9628 18.4983C16.9628 18.1087 17.2225 17.8489 17.5905 17.8273C17.7854 17.8273 17.9586 17.8922 18.1317 18.0222L18.3482 17.6542C18.1317 17.4809 17.9153 17.416 17.6122 17.416C16.9411 17.416 16.5082 17.8706 16.5082 18.4983ZM20.7078 18.4983V17.4593H20.2532V17.719C20.1016 17.5243 19.8852 17.416 19.6037 17.416C19.0193 17.416 18.5647 17.8706 18.5647 18.4983C18.5647 19.1261 19.0193 19.5807 19.6037 19.5807C19.9068 19.5807 20.1233 19.4725 20.2532 19.2777V19.5374H20.7078V18.4983ZM19.0409 18.4983C19.0409 18.1303 19.279 17.8273 19.6686 17.8273C20.0366 17.8273 20.2965 18.1087 20.2965 18.4983C20.2965 18.8664 20.0366 19.1694 19.6686 19.1694C19.279 19.1477 19.0409 18.8664 19.0409 18.4983ZM13.6076 17.416C13.0014 17.416 12.5684 17.8489 12.5684 18.4983C12.5684 19.1478 13.0013 19.5807 13.6292 19.5807C13.9322 19.5807 14.2353 19.4941 14.4734 19.2993L14.2569 18.9746C14.0837 19.1045 13.8673 19.1911 13.6508 19.1911C13.3694 19.1911 13.088 19.0612 13.023 18.6931H14.56V18.52C14.5817 17.8489 14.192 17.416 13.6075 17.416H13.6076ZM13.6076 17.8056C13.8889 17.8056 14.0838 17.9789 14.127 18.3036H13.0447C13.088 18.0222 13.2828 17.8056 13.6076 17.8056ZM24.8856 18.4983V16.6367H24.431V17.719C24.2795 17.5243 24.063 17.416 23.7816 17.416C23.1971 17.416 22.7425 17.8706 22.7425 18.4983C22.7425 19.1261 23.1971 19.5807 23.7816 19.5807C24.0847 19.5807 24.3012 19.4725 24.431 19.2777V19.5374H24.8856V18.4983ZM23.2188 18.4983C23.2188 18.1303 23.4569 17.8273 23.8466 17.8273C24.2146 17.8273 24.4743 18.1087 24.4743 18.4983C24.4743 18.8664 24.2146 19.1694 23.8466 19.1694C23.4569 19.1477 23.2188 18.8664 23.2188 18.4983ZM8.02257 18.4983V17.4593H7.56798V17.719C7.41642 17.5243 7.19998 17.416 6.91855 17.416C6.33409 17.416 5.87951 17.8706 5.87951 18.4983C5.87951 19.1261 6.33409 19.5807 6.91855 19.5807C7.22167 19.5807 7.43811 19.4725 7.56798 19.2777V19.5374H8.02257V18.4983ZM6.33409 18.4983C6.33409 18.1303 6.57223 17.8273 6.96184 17.8273C7.32984 17.8273 7.58968 18.1087 7.58968 18.4983C7.58968 18.8664 7.32984 19.1694 6.96184 19.1694C6.57223 19.1477 6.33409 18.8664 6.33409 18.4983Z" fill="#4F5554"/>
</svg>