<svg width="54" height="13" viewBox="0 0 54 13" fill="none" xmlns="http://www.w3.org/2000/svg">
    <path d="M52.1111 9.6877C51.9103 9.68832 51.7117 9.72856 51.5265 9.80612C51.3413 9.88367 51.1732 9.99702 51.0319 10.1396C50.8906 10.2823 50.7789 10.4514 50.7031 10.6373C50.6273 10.8232 50.5889 11.0222 50.5901 11.223C50.5889 11.4234 50.6271 11.622 50.7026 11.8076C50.7781 11.9932 50.8895 12.1621 51.0302 12.3047C51.171 12.4473 51.3385 12.5607 51.5232 12.6385C51.7078 12.7164 51.906 12.7571 52.1063 12.7583C52.5135 12.7583 52.904 12.5966 53.192 12.3086C53.4799 12.0207 53.6416 11.6302 53.6416 11.223C53.6416 10.8158 53.4799 10.4253 53.192 10.1374C52.904 9.84945 52.5135 9.6877 52.1063 9.6877H52.1111ZM47.1082 8.50154C47.1292 8.06272 47.0184 7.62766 46.7899 7.2524C46.5615 6.87713 46.226 6.57884 45.8266 6.39593C45.4271 6.21303 44.9821 6.1539 44.5487 6.22614C44.1154 6.29839 43.7136 6.49872 43.3951 6.80131C43.0767 7.10391 42.856 7.49493 42.7617 7.924C42.6674 8.35308 42.7037 8.80056 42.866 9.20882C43.0282 9.61709 43.3089 9.96743 43.672 10.2147C44.0351 10.462 44.464 10.595 44.9033 10.5964C45.1853 10.6028 45.4658 10.5535 45.7288 10.4514C45.9918 10.3493 46.2321 10.1964 46.436 10.0014C46.6398 9.80644 46.8033 9.5732 46.917 9.31502C47.0307 9.05684 47.0924 8.77879 47.0986 8.49675L47.1082 8.50154ZM47.1082 4.41693H49.5331V12.5814H47.1082V12.0791C46.405 12.5643 45.571 12.8245 44.7167 12.8253C43.5751 12.8253 42.4802 12.3718 41.6729 11.5645C40.8656 10.7572 40.4121 9.66232 40.4121 8.52067C40.4121 7.37901 40.8656 6.28412 41.6729 5.47684C42.4802 4.66957 43.5751 4.21605 44.7167 4.21605C45.5717 4.21737 46.4059 4.47932 47.1082 4.96697V4.41693ZM27.7231 5.47874V4.4265H25.2408V12.5814H27.7279V8.75503C27.7279 7.46843 29.1101 6.77491 30.0667 6.77491H30.0763V4.4265C29.6305 4.4159 29.1879 4.50486 28.7808 4.68688C28.3738 4.86891 28.0124 5.13943 27.7231 5.47874ZM21.5436 8.49675C21.5627 8.05898 21.4503 7.62551 21.221 7.25213C20.9916 6.87875 20.6558 6.58253 20.2567 6.40161C19.8576 6.22069 19.4135 6.16333 18.9816 6.23693C18.5496 6.31052 18.1496 6.5117 17.8329 6.81457C17.5162 7.11744 17.2974 7.50814 17.2047 7.9364C17.1119 8.36465 17.1495 8.81087 17.3124 9.21762C17.4754 9.62437 17.7564 9.97304 18.1192 10.2188C18.482 10.4645 18.91 10.596 19.3482 10.5964C19.6302 10.6028 19.9108 10.5535 20.1738 10.4514C20.4367 10.3493 20.677 10.1964 20.8809 10.0014C21.0848 9.80644 21.2482 9.5732 21.3619 9.31502C21.4756 9.05684 21.5374 8.77879 21.5436 8.49675ZM21.5436 4.41215H23.9637V12.5814H21.5531V12.0791C20.906 12.5187 20.1513 12.7736 19.3702 12.8164C18.5891 12.8593 17.8111 12.6884 17.1197 12.3223C16.4284 11.9561 15.85 11.4085 15.4465 10.7383C15.043 10.0681 14.8299 9.30057 14.8299 8.51828C14.8299 7.73598 15.043 6.96848 15.4465 6.29825C15.85 5.62802 16.4284 5.0804 17.1197 4.71426C17.8111 4.34811 18.5891 4.17728 19.3702 4.22012C20.1513 4.26296 20.906 4.51785 21.5531 4.9574L21.5436 4.41215ZM36.1266 4.19692C35.6492 4.16863 35.1721 4.25758 34.7369 4.45599C34.3017 4.6544 33.9217 4.95627 33.63 5.33525V4.4265H31.2385V12.5814H33.6778V8.27674C33.6581 8.03112 33.6914 7.78413 33.7756 7.55255C33.8598 7.32096 33.9929 7.11022 34.1657 6.93462C34.3386 6.75902 34.5473 6.62269 34.7775 6.53489C35.0077 6.44708 35.2542 6.40986 35.5001 6.42576C36.5619 6.42576 37.1741 7.06666 37.1741 8.25761V12.5622H39.5942V7.38712C39.5942 5.47396 38.0972 4.19692 36.1458 4.19692H36.1266ZM11.3464 12.5814H13.8861V0.777144H11.3464V12.5814ZM0.207031 12.5814H2.89024V0.772362H0.207031V12.5814ZM9.60066 0.767578C9.60616 2.00945 9.36649 3.2402 8.89538 4.38925C8.42426 5.53831 7.73098 6.58307 6.85527 7.46364L10.5668 12.5718H7.24747L3.21548 7.03318L4.24859 6.24879C5.09622 5.61053 5.78288 4.78292 6.25374 3.83206C6.72461 2.88119 6.96663 1.83341 6.96049 0.772362L9.60066 0.767578Z" fill="#4F5554"/>
</svg>
