<svg width="38" height="17" viewBox="0 0 38 17" fill="none" xmlns="http://www.w3.org/2000/svg">
    <g clip-path="url(#clip0_4966_34406)">
        <path d="M6.97076 2.85967C6.53717 3.40011 5.84342 3.82637 5.14967 3.76548C5.06295 3.03474 5.4026 2.25834 5.80006 1.7788C6.23365 1.22314 6.99244 0.827322 7.6067 0.796875C7.67896 1.55805 7.39713 2.30401 6.97076 2.85967ZM7.59947 3.9101C6.59498 3.84921 5.73502 4.51143 5.25807 4.51143C4.77389 4.51143 4.044 3.94055 3.24908 3.95577C2.21568 3.97099 1.25455 4.58755 0.727011 5.56947C-0.356973 7.53332 0.445175 10.441 1.49303 12.0395C2.00611 12.8311 2.62037 13.6989 3.42975 13.6684C4.19576 13.638 4.49928 13.1432 5.42428 13.1432C6.3565 13.1432 6.62389 13.6684 7.43326 13.6532C8.27154 13.638 8.79908 12.8616 9.31217 12.0699C9.89752 11.1718 10.136 10.2964 10.1504 10.2507C10.136 10.2355 8.5317 9.5885 8.51725 7.63988C8.50279 6.01096 9.78189 5.23455 9.83971 5.18888C9.11705 4.06234 7.98971 3.94055 7.59947 3.9101ZM13.4024 1.70268V13.5695H15.1512V9.51238H17.5721C19.7835 9.51238 21.3372 7.91391 21.3372 5.59992C21.3372 3.28593 19.8124 1.70268 17.6299 1.70268H13.4024ZM15.1512 3.25549H17.1674C18.685 3.25549 19.5522 4.10801 19.5522 5.60753C19.5522 7.10706 18.685 7.96719 17.1602 7.96719H15.1512V3.25549ZM24.5313 13.6608C25.6297 13.6608 26.6487 13.0747 27.1112 12.1461H27.1473V13.5695H28.7661V7.66272C28.7661 5.95006 27.4653 4.84635 25.4635 4.84635C23.6063 4.84635 22.2333 5.96529 22.1827 7.50287H23.7581C23.8881 6.77214 24.5313 6.29259 25.4129 6.29259C26.4825 6.29259 27.0823 6.81781 27.0823 7.78451V8.43912L24.8999 8.57613C22.8692 8.70553 21.7708 9.58089 21.7708 11.1032C21.7708 12.6408 22.9053 13.6608 24.5313 13.6608ZM25.001 12.2526C24.0688 12.2526 23.4762 11.7807 23.4762 11.0576C23.4762 10.3116 24.0471 9.87775 25.1383 9.80924L27.0823 9.67984V10.3497C27.0823 11.461 26.1862 12.2526 25.001 12.2526ZM30.9268 16.7969C32.6323 16.7969 33.4344 16.1118 34.1354 14.0338L37.2067 4.96053H35.429L33.3694 11.971H33.3333L31.2737 4.96053H29.4454L32.4083 13.5999L32.2493 14.1251C31.9819 15.0157 31.5483 15.3582 30.7751 15.3582C30.6378 15.3582 30.3704 15.343 30.262 15.3278V16.7512C30.3631 16.7817 30.7967 16.7969 30.9268 16.7969Z" fill="#4F5554"/>
    </g>
    <defs>
        <clipPath id="clip0_4966_34406">
            <rect width="37" height="16" fill="white" transform="translate(0.207031 0.796875)"/>
        </clipPath>
    </defs>
</svg>
