<svg width="55" height="35" viewBox="0 0 55 35" fill="none" xmlns="http://www.w3.org/2000/svg">
<rect x="0.980469" y="0.5" width="53.1773" height="34" rx="5.5" fill="white" stroke="#D9D9D9"/>
<path d="M8.27734 13.9772H9.90489L9.09112 12.0234L8.27734 13.9772Z" fill="#306FC5"/>
<path d="M16.9336 20.5352V21.4423H19.6706V22.4187H16.9336V23.4664H19.9664L21.3716 22.0003L20.0398 20.5352H16.9336Z" fill="#306FC5"/>
<path d="M38.3101 12.0234L37.4219 13.9772H39.1239L38.3101 12.0234Z" fill="#306FC5"/>
<path d="M24.8451 24.0247V20.0469L22.9219 22.0007L24.8451 24.0247Z" fill="#306FC5"/>
<path d="M28.4723 21.1633C28.3979 20.7449 28.1021 20.5352 27.6586 20.5352H26.1055V21.7905H27.733C28.1766 21.7905 28.4723 21.5818 28.4723 21.1633Z" fill="#306FC5"/>
<path d="M33.6493 21.6526C33.7971 21.5824 33.8716 21.3727 33.8716 21.1639C33.946 20.885 33.7971 20.7455 33.6493 20.6752C33.5014 20.605 33.2791 20.605 33.0578 20.605H31.5781V21.7219H33.0578C33.2791 21.7219 33.5014 21.7219 33.6493 21.6526Z" fill="#306FC5"/>
<path fill-rule="evenodd" clip-rule="evenodd" d="M44.3012 10.2085H47.6297V17.0463H44.1533L43.4874 15.9997V17.0463H39.1973L38.7537 15.9304H37.7186L37.275 17.0463H35.055C34.1678 17.0463 33.5019 16.8376 33.0583 16.6279V17.0463H27.7331V15.511C27.7331 15.3022 27.7331 15.3022 27.5853 15.3022H27.4364V17.1166H17.1551V16.2786L16.785 17.1166H14.6404L14.2702 16.2786V17.1166H9.98117L9.53652 15.9997H8.57595L8.1313 17.0463L8.10471 17.1166H4.25391L4.28476 17.0463L5.9857 13.4879L7.46539 10.2085H10.7205L11.0896 11.0454V10.2085H14.8628L15.6755 11.9526L16.4903 10.2085H28.3991C28.9905 10.2085 29.4341 10.348 29.8043 10.627V10.2085H33.1328V10.627C33.7242 10.348 34.3901 10.2085 35.2028 10.2085H39.9376L40.3812 11.0454V10.2085H43.8576L44.3012 11.0454V10.2085ZM19.2263 16.0699V11.1849H17.2285L15.7499 14.5346L15.7255 14.6068L15.0553 13.1708L14.1224 11.2551H14.1203L14.0851 11.1849H12.1257V15.8602L10.0546 11.1849H8.20576L6.01762 16.0699H7.31753L7.83558 15.0233H10.3503L10.8683 16.0699H13.3831V12.2315L15.1585 16.0699H16.2478L17.9689 12.3901V12.3921L18.0434 12.2315V16.0699H19.2263ZM24.3302 12.2315V11.1859H20.1879V16.1392H24.3302V15.0935H21.4453V14.1161H24.2557V13.1387H21.4453V12.2315H24.3302ZM29.1384 13.7669C29.5011 13.6294 30.0064 13.222 30.0234 12.4794C30.0149 11.9405 29.7968 11.6003 29.4341 11.3946C29.0639 11.1859 28.6203 11.1859 27.9544 11.1859H25.144V16.0699H26.4013V14.3258H27.7331C28.081 14.3258 28.2916 14.3268 28.4023 14.3941C28.4799 14.4252 28.5501 14.4683 28.6203 14.5346C28.8426 14.8135 28.8426 15.232 28.8426 15.512V16.0699H29.9511V15.0935C29.9511 15.0504 29.95 15.0112 29.949 14.9731C29.949 14.9711 29.949 14.9691 29.949 14.9671C29.949 14.9631 29.9479 14.9601 29.9479 14.956C29.9479 14.949 29.9479 14.943 29.9468 14.936C29.9415 14.5536 29.8266 14.2937 29.6851 14.1181C29.6649 14.091 29.6405 14.0629 29.6128 14.0358C29.6107 14.0338 29.6075 14.0328 29.6064 14.0308C29.3852 13.8141 29.1384 13.7669 29.1384 13.7669ZM32.0967 11.1849H30.8393V16.0699H32.0967V11.1849ZM46.5202 16.0699V11.2551H45.2617V14.6741L43.1172 11.2551H41.2684V15.9304L39.1973 11.2551H37.3474L35.6464 15.0935H35.1294C34.7593 15.0935 34.4635 15.0233 34.2412 14.8135C33.9455 14.5346 33.8721 14.1854 33.8721 13.6274C33.8721 13.1387 34.02 12.7202 34.2412 12.5115C34.538 12.3018 34.7593 12.2315 35.2028 12.2315H36.3868V11.1849H35.2028C34.3891 11.1849 33.7232 11.3244 33.354 11.7438C32.836 12.3018 32.6881 13.0002 32.6881 13.6977C32.6881 14.6048 32.9105 15.1628 33.354 15.5812C33.7976 15.9997 34.538 16.1392 35.1294 16.1392H36.5347L36.9783 15.0233H39.5674L40.011 16.0699H41.2684V16.0729H42.5183V15.4347L42.5257 15.4417V12.371L44.8926 16.0699H46.5202Z" fill="#306FC5"/>
<path d="M28.5533 13.2199C28.5745 13.1978 28.5947 13.1727 28.6107 13.1446C28.6777 13.0443 28.7554 12.8647 28.7139 12.6188C28.7118 12.5957 28.7075 12.5746 28.7022 12.5546C28.7011 12.5496 28.7011 12.5445 28.7001 12.5385H28.699C28.6618 12.4191 28.5682 12.3458 28.4745 12.3017C28.3256 12.2314 28.1044 12.2314 27.882 12.2314H26.4023V13.3483H27.882C28.1044 13.3483 28.3267 13.3483 28.4745 13.2781C28.4969 13.2681 28.516 13.253 28.5352 13.2369L28.5362 13.238C28.5362 13.238 28.5437 13.2299 28.5533 13.2199Z" fill="#306FC5"/>
<path fill-rule="evenodd" clip-rule="evenodd" d="M50.8788 23.1823L50.8831 23.1864C50.8809 23.2104 50.8777 23.2345 50.8745 23.2586C50.8107 24.0724 50.381 24.7548 49.7002 25.1402C49.2566 25.4201 48.5907 25.4894 47.9248 25.4894H44.7441V25.0709C44.3739 25.3499 43.7091 25.4894 43.0432 25.4894H32.9832V23.8848C32.9832 23.6751 32.9832 23.6751 32.7609 23.6751H32.6141V25.4894H29.2856V23.6048C28.7676 23.8145 28.1016 23.8145 27.5847 23.8145H27.2145V25.4201H23.0711L22.1446 24.4106L21.0755 25.4201H14.5664V18.3716H21.2223L22.184 19.4182L23.2201 18.3716H27.657C28.1016 18.3716 28.9899 18.4418 29.359 18.79V18.3716H33.3534C33.7236 18.3716 34.5374 18.4418 34.981 18.79V18.3716H41.0465V18.791C41.3422 18.5121 42.0071 18.3716 42.5251 18.3716H45.9281V18.791C45.9281 18.791 46.4876 18.3716 46.9493 18.3716C47.4099 18.3716 50.5107 18.3716 50.5107 18.3716V18.5813H50.5139V21.7213C50.7363 22.0705 50.8841 22.5592 50.8841 23.0469C50.8841 23.093 50.882 23.1372 50.8788 23.1823ZM29.7292 20.9536C29.7292 20.7709 29.7069 20.6104 29.6675 20.4659C29.3452 19.7353 28.4931 19.5587 27.7315 19.5587H23.8115L22.2584 21.1633L22.2212 21.1994L21.9446 20.9154L20.6309 19.5587H15.8238V24.4427H20.5575L22.184 22.8371L22.2531 22.9124L22.2584 22.9074L23.6732 24.4427H26.105V22.6284H27.5847C28.6931 22.6284 29.7292 22.3494 29.7292 20.9536ZM34.3151 22.1407C34.6852 22.0002 35.2022 21.5818 35.2022 20.8141C35.2022 20.2561 34.9065 19.9069 34.5374 19.6982C34.1672 19.4885 33.6491 19.4885 33.0577 19.4885H30.2472V24.4427H31.5046V22.6284H32.8354C33.279 22.6284 33.5757 22.6284 33.7236 22.8371C33.9449 23.0469 33.9449 23.5356 33.9449 23.8145V24.4427H35.2022V23.4663C35.2022 23.0469 35.1288 22.7679 34.981 22.5592C34.9065 22.4187 34.6852 22.2792 34.3151 22.1407ZM40.0849 19.4885H35.9426V24.4427H40.0849V23.3961H37.2V22.4187H40.0104V21.4423H37.2V20.5351H40.0849V19.4885ZM45.1143 22.9074C45.1143 22.4197 44.9664 22.0705 44.7441 21.8607C44.4484 21.5818 44.0048 21.4423 43.3389 21.4423H42.673C42.5251 21.4423 42.3773 21.4423 42.2294 21.372C42.0815 21.3028 41.9337 21.2336 41.9337 21.0238C41.9337 20.8843 41.9337 20.7449 42.0815 20.6746C42.2294 20.6054 42.3773 20.6054 42.5996 20.6054H44.892V19.4192H42.4517C41.1199 19.4192 40.6763 20.1869 40.6763 20.8843C40.6763 22.4197 42.0815 22.3494 43.2655 22.4197C43.4868 22.4197 43.6346 22.4889 43.7091 22.5592C43.7836 22.6284 43.8569 22.7679 43.8569 22.9074C43.8569 23.0469 43.7836 23.1864 43.7091 23.2566C43.5612 23.3961 43.4123 23.3961 43.191 23.3961H40.8242V24.4427H43.191C44.4484 24.4427 45.1143 23.954 45.1143 22.9074ZM49.9959 22.9074C49.9959 22.8171 49.9863 22.7358 49.9735 22.6575C49.8214 21.9099 49.1428 21.6239 48.9385 21.5537C48.7141 21.4794 48.4705 21.4423 48.1471 21.4423H47.4812C47.3333 21.4423 47.1854 21.4423 47.0376 21.372C46.8153 21.3028 46.7408 21.2336 46.7408 21.0238C46.7408 20.8843 46.8153 20.7449 46.8897 20.6746C47.0376 20.6054 47.1854 20.6054 47.4078 20.6054H49.7002V19.4192H47.2599C47.1227 19.4192 46.9972 19.4283 46.878 19.4443C45.8866 19.6219 45.4845 20.221 45.4845 20.8843C45.4845 22.4197 46.8897 22.3494 48.0726 22.4197C48.2949 22.4197 48.4428 22.4889 48.5173 22.5592C48.5907 22.6284 48.6651 22.7679 48.6651 22.9074C48.6651 23.0469 48.5907 23.1864 48.5173 23.2566C48.3694 23.3961 48.2205 23.3961 47.9992 23.3961H45.6324V24.4427H47.9992C48.7385 24.4427 49.2566 24.233 49.5523 23.954C49.848 23.6751 49.9959 23.3268 49.9959 22.9074Z" fill="#306FC5"/>
</svg>
