<svg width="52" height="35" viewBox="0 0 52 35" fill="none" xmlns="http://www.w3.org/2000/svg">
<rect x="1.33203" y="0.5" width="50.0417" height="34" rx="5.5" fill="#FFB3C7" stroke="#D9D9D9"/>
<path d="M44.9177 19.3093C44.7704 19.3098 44.6247 19.3393 44.4889 19.3962C44.3531 19.4531 44.2299 19.5362 44.1263 19.6408C44.0227 19.7454 43.9407 19.8694 43.8851 20.0057C43.8295 20.142 43.8014 20.288 43.8023 20.4352C43.8014 20.5821 43.8294 20.7278 43.8848 20.8639C43.9402 21 44.0218 21.1239 44.125 21.2284C44.2283 21.333 44.3511 21.4162 44.4865 21.4732C44.6219 21.5303 44.7672 21.5602 44.9141 21.5611C45.2127 21.5611 45.4991 21.4425 45.7103 21.2313C45.9214 21.0202 46.04 20.7338 46.04 20.4352C46.04 20.1366 45.9214 19.8502 45.7103 19.6391C45.4991 19.428 45.2127 19.3093 44.9141 19.3093H44.9177ZM41.2489 18.4395C41.2643 18.1177 41.183 17.7987 41.0155 17.5235C40.848 17.2483 40.602 17.0296 40.3091 16.8954C40.0162 16.7613 39.6898 16.7179 39.372 16.7709C39.0543 16.8239 38.7596 16.9708 38.5261 17.1927C38.2925 17.4146 38.1307 17.7014 38.0616 18.016C37.9924 18.3306 38.019 18.6588 38.138 18.9582C38.257 19.2576 38.4629 19.5145 38.7291 19.6958C38.9954 19.8772 39.3099 19.9747 39.632 19.9758C39.8388 19.9804 40.0445 19.9443 40.2374 19.8694C40.4302 19.7945 40.6065 19.6824 40.756 19.5394C40.9055 19.3964 41.0253 19.2254 41.1087 19.0361C41.1921 18.8467 41.2374 18.6428 41.2419 18.436L41.2489 18.4395ZM41.2489 15.4442H43.0272V21.4313H41.2489V21.063C40.7332 21.4188 40.1217 21.6096 39.4952 21.6102C38.658 21.6102 37.8551 21.2776 37.2631 20.6856C36.6711 20.0936 36.3386 19.2907 36.3386 18.4535C36.3386 17.6163 36.6711 16.8134 37.2631 16.2215C37.8551 15.6295 38.658 15.2969 39.4952 15.2969C40.1222 15.2979 40.7339 15.49 41.2489 15.8476V15.4442ZM27.0335 16.2228V15.4512H25.2131V21.4313H27.037V18.6254C27.037 17.6819 28.0506 17.1733 28.7521 17.1733H28.7591V15.4512C28.4322 15.4434 28.1077 15.5087 27.8092 15.6422C27.5106 15.7756 27.2456 15.974 27.0335 16.2228ZM22.5019 18.436C22.5159 18.115 22.4335 17.7971 22.2654 17.5233C22.0972 17.2495 21.8509 17.0323 21.5583 16.8996C21.2656 16.7669 20.9399 16.7249 20.6232 16.7788C20.3064 16.8328 20.013 16.9803 19.7808 17.2024C19.5486 17.4245 19.3882 17.711 19.3202 18.0251C19.2521 18.3391 19.2797 18.6664 19.3992 18.9646C19.5187 19.2629 19.7247 19.5186 19.9908 19.6988C20.2568 19.879 20.5707 19.9754 20.892 19.9758C21.0989 19.9804 21.3046 19.9443 21.4974 19.8694C21.6903 19.7945 21.8665 19.6824 22.016 19.5394C22.1655 19.3964 22.2854 19.2254 22.3687 19.0361C22.4521 18.8467 22.4974 18.6428 22.5019 18.436ZM22.5019 15.4407H24.2767V21.4313H22.5089V21.063C22.0344 21.3854 21.481 21.5723 20.9082 21.6037C20.3354 21.6351 19.7648 21.5098 19.2579 21.2413C18.7509 20.9728 18.3267 20.5713 18.0308 20.0798C17.735 19.5883 17.5787 19.0255 17.5787 18.4518C17.5787 17.8781 17.735 17.3153 18.0308 16.8238C18.3267 16.3323 18.7509 15.9307 19.2579 15.6622C19.7648 15.3937 20.3354 15.2685 20.9082 15.2999C21.481 15.3313 22.0344 15.5182 22.5089 15.8405L22.5019 15.4407ZM33.196 15.2829C32.8458 15.2621 32.496 15.3273 32.1768 15.4728C31.8577 15.6183 31.579 15.8397 31.3651 16.1176V15.4512H29.6114V21.4313H31.4002V18.2747C31.3857 18.0945 31.4102 17.9134 31.4719 17.7436C31.5337 17.5738 31.6312 17.4192 31.758 17.2905C31.8848 17.1617 32.0378 17.0617 32.2066 16.9973C32.3754 16.9329 32.5562 16.9057 32.7365 16.9173C33.5151 16.9173 33.9641 17.3873 33.9641 18.2606V21.4173H35.7388V17.6223C35.7388 16.2193 34.641 15.2829 33.21 15.2829H33.196ZM15.0242 21.4313H16.8866V12.7751H15.0242V21.4313ZM6.85547 21.4313H8.82311V12.7716H6.85547V21.4313ZM13.744 12.7681C13.748 13.6788 13.5723 14.5813 13.2268 15.4239C12.8813 16.2665 12.3729 17.0327 11.7307 17.6784L14.4525 21.4243H12.0183L9.06162 17.3627L9.81921 16.7875C10.4408 16.3195 10.9443 15.7126 11.2896 15.0153C11.6349 14.318 11.8124 13.5497 11.8079 12.7716L13.744 12.7681Z" fill="#0A0B09"/>
</svg>
