<svg width="46" height="16" viewBox="0 0 46 16" fill="none" xmlns="http://www.w3.org/2000/svg">
    <path d="M4.47656 3.86732H6.03247L5.25452 1.88477L4.47656 3.86732Z" fill="#4F5554"/>
    <path d="M12.75 10.5215V11.442H15.3666V12.4328H12.75V13.4958H15.6493L16.9927 12.0081L15.7195 10.5215H12.75Z" fill="#4F5554"/>
    <path d="M33.1851 1.88477L32.3359 3.86732H33.963L33.1851 1.88477Z" fill="#4F5554"/>
    <path d="M20.3152 14.0637V10.0273L18.4766 12.0099L20.3152 14.0637Z" fill="#4F5554"/>
    <path d="M23.7822 11.1589C23.711 10.7343 23.4283 10.5215 23.0043 10.5215H21.5195V11.7953H23.0754C23.4995 11.7953 23.7822 11.5835 23.7822 11.1589Z" fill="#4F5554"/>
    <path d="M28.73 11.6549C28.8713 11.5836 28.9425 11.3708 28.9425 11.159C29.0137 10.8759 28.8713 10.7344 28.73 10.6631C28.5886 10.5918 28.3761 10.5918 28.1646 10.5918H26.75V11.7251H28.1646C28.3761 11.7251 28.5886 11.7251 28.73 11.6549Z" fill="#4F5554"/>
    <path fill-rule="evenodd" clip-rule="evenodd" d="M38.9135 0.0429688H42.0955V6.9814H38.7721L38.1355 5.91936V6.9814H34.0342L33.6102 5.8491H32.6207L32.1966 6.9814H30.0743C29.2262 6.9814 28.5896 6.76961 28.1655 6.55679V6.9814H23.0747V5.42346C23.0747 5.21166 23.0747 5.21167 22.9334 5.21167H22.791V7.05268H12.9623V6.20243L12.6084 7.05268H10.5583L10.2044 6.20243V7.05268H6.10409L5.67901 5.91936H4.76072L4.33564 6.9814L4.31021 7.05268H0.628906L0.658397 6.9814L2.28448 3.37065L3.69904 0.0429688H6.81086L7.16374 0.892199V0.0429688H10.7708L11.5477 1.81271L12.3267 0.0429688H23.7113C24.2767 0.0429688 24.7008 0.184508 25.0547 0.467584V0.0429688H28.2367V0.467584C28.8021 0.184508 29.4387 0.0429688 30.2156 0.0429688H34.742L35.1661 0.892199V0.0429688H38.4894L38.9135 0.892199V0.0429688ZM14.9423 5.99064V1.03374H13.0325L11.6189 4.43269L11.5955 4.50601L10.9549 3.04888L10.063 1.10502H10.061L10.0274 1.03374H8.15423V5.77782L6.17426 1.03374H4.40682L2.31499 5.99064H3.55768L4.05293 4.92859H6.45697L6.95221 5.99064H9.35625V2.09578L11.0535 5.99064H12.0949L13.7403 2.25667V2.25871L13.8114 2.09578V5.99064H14.9423ZM19.8215 2.09578V1.03476H15.8616V6.0609H19.8215V4.99987H17.0636V4.00808H19.7504V3.01629H17.0636V2.09578H19.8215ZM24.4181 3.65373C24.7649 3.51422 25.2479 3.10081 25.2642 2.3473C25.256 1.80049 25.0476 1.4553 24.7008 1.24655C24.3469 1.03476 23.9228 1.03476 23.2862 1.03476H20.5995V5.99064H21.8015V4.2209H23.0747C23.4073 4.2209 23.6086 4.22192 23.7144 4.29014C23.7886 4.3217 23.8557 4.36549 23.9228 4.43269C24.1354 4.71577 24.1354 5.14039 24.1354 5.42448V5.99064H25.195V4.99987C25.195 4.95608 25.194 4.91637 25.193 4.87767C25.193 4.87564 25.193 4.8736 25.193 4.87157C25.193 4.86749 25.192 4.86444 25.192 4.86036C25.192 4.85324 25.192 4.84713 25.191 4.84C25.1859 4.45204 25.076 4.18831 24.9408 4.01012C24.9215 3.98262 24.8981 3.95411 24.8716 3.92662C24.8696 3.92458 24.8666 3.92356 24.8655 3.92153C24.654 3.70158 24.4181 3.65373 24.4181 3.65373ZM27.2462 1.03374H26.0442V5.99064H27.2462V1.03374ZM41.0348 5.99064V1.10502H39.8318V4.57423L37.7816 1.10502H36.0142V5.8491L34.0342 1.10502H32.2658L30.6397 4.99987H30.1455C29.7916 4.99987 29.5089 4.92859 29.2963 4.71577C29.0136 4.43269 28.9435 4.07834 28.9435 3.51219C28.9435 3.01629 29.0848 2.59168 29.2963 2.37988C29.5801 2.16706 29.7916 2.09578 30.2156 2.09578H31.3475V1.03374H30.2156C29.4377 1.03374 28.8011 1.17528 28.4482 1.60091C27.953 2.16706 27.8116 2.87577 27.8116 3.58347C27.8116 4.50397 28.0241 5.07013 28.4482 5.49474C28.8723 5.91936 29.5801 6.0609 30.1455 6.0609H31.4888L31.9129 4.92859H34.3881L34.8122 5.99064H36.0142V5.99369H37.2091V5.34608L37.2162 5.3532V2.23732L39.4789 5.99064H41.0348Z" fill="#4F5554"/>
    <path d="M23.8609 3.09869C23.8813 3.07629 23.9006 3.05083 23.9158 3.02232C23.9799 2.9205 24.0542 2.73823 24.0145 2.48875C24.0125 2.46533 24.0084 2.44395 24.0033 2.42358C24.0023 2.41849 24.0023 2.4134 24.0013 2.40729H24.0003C23.9647 2.28612 23.8752 2.21178 23.7857 2.16698C23.6433 2.0957 23.4318 2.0957 23.2192 2.0957H21.8047V3.22903H23.2192C23.4318 3.22903 23.6443 3.22903 23.7857 3.15775C23.807 3.14757 23.8253 3.1323 23.8436 3.116L23.8447 3.11702C23.8447 3.11702 23.8518 3.10888 23.8609 3.09869Z" fill="#4F5554"/>
    <path fill-rule="evenodd" clip-rule="evenodd" d="M45.2024 13.2087L45.2065 13.2128C45.2044 13.2372 45.2014 13.2616 45.1983 13.2861C45.1373 14.1119 44.7265 14.8043 44.0756 15.1953C43.6516 15.4794 43.015 15.5497 42.3784 15.5497H39.3377V15.1251C38.9838 15.4081 38.3483 15.5497 37.7117 15.5497H28.0945V13.9215C28.0945 13.7087 28.0945 13.7087 27.8819 13.7087H27.7416V15.5497H24.5596V13.6374C24.0644 13.8502 23.4278 13.8502 22.9335 13.8502H22.5796V15.4794H18.6187L17.7329 14.455L16.7109 15.4794H10.4883V8.32715H16.8512L17.7706 9.38919L18.7611 8.32715H23.0027C23.4278 8.32715 24.2769 8.39843 24.6298 8.75176V8.32715H28.4484C28.8023 8.32715 29.5802 8.39843 30.0043 8.75176V8.32715H35.8029V8.75278C36.0856 8.4697 36.7212 8.32715 37.2164 8.32715H40.4696V8.75278C40.4696 8.75278 41.0045 8.32715 41.4458 8.32715C41.8862 8.32715 44.8505 8.32715 44.8505 8.32715V8.53996H44.8536V11.7261C45.0661 12.0805 45.2075 12.5764 45.2075 13.0712C45.2075 13.1181 45.2054 13.1629 45.2024 13.2087ZM24.9837 10.9471C24.9837 10.7618 24.9623 10.5989 24.9247 10.4523C24.6166 9.71097 23.802 9.53175 23.0739 9.53175H19.3265L17.8417 11.16L17.8062 11.1966L17.5417 10.9084L16.2858 9.53175H11.6903V14.4876H16.2157L17.7706 12.8584L17.8367 12.9348L17.8417 12.9297L19.1943 14.4876H21.519V12.6466H22.9335C23.9932 12.6466 24.9837 12.3635 24.9837 10.9471ZM29.3677 12.1517C29.7216 12.0092 30.2158 11.5846 30.2158 10.8056C30.2158 10.2394 29.9331 9.88509 29.5802 9.67329C29.2263 9.46047 28.7311 9.46047 28.1657 9.46047H25.4789V14.4876H26.6809V12.6466H27.9531C28.3772 12.6466 28.6609 12.6466 28.8023 12.8584C29.0138 13.0712 29.0138 13.5671 29.0138 13.8502V14.4876H30.2158V13.4969C30.2158 13.0712 30.1456 12.7882 30.0043 12.5764C29.9331 12.4338 29.7216 12.2923 29.3677 12.1517ZM34.8836 9.46047H30.9236V14.4876H34.8836V13.4256H32.1256V12.4338H34.8124V11.443H32.1256V10.5225H34.8836V9.46047ZM39.6916 12.9297C39.6916 12.4348 39.5503 12.0805 39.3377 11.8676C39.055 11.5846 38.631 11.443 37.9944 11.443H37.3578C37.2164 11.443 37.075 11.443 36.9337 11.3718C36.7923 11.3015 36.651 11.2312 36.651 11.0184C36.651 10.8769 36.651 10.7353 36.7923 10.6641C36.9337 10.5938 37.0751 10.5938 37.2876 10.5938H39.4791V9.39021H37.1462C35.873 9.39021 35.449 10.1692 35.449 10.8769C35.449 12.4348 36.7923 12.3635 37.9242 12.4348C38.1357 12.4348 38.2771 12.5051 38.3483 12.5764C38.4194 12.6466 38.4896 12.7882 38.4896 12.9297C38.4896 13.0712 38.4194 13.2128 38.3483 13.284C38.2069 13.4256 38.0645 13.4256 37.853 13.4256H35.5903V14.4876H37.853C39.055 14.4876 39.6916 13.9917 39.6916 12.9297ZM44.3583 12.9297C44.3583 12.838 44.3492 12.7556 44.337 12.6761C44.1916 11.9175 43.5428 11.6273 43.3475 11.5561C43.1329 11.4807 42.9001 11.443 42.5909 11.443H41.9543C41.813 11.443 41.6716 11.443 41.5302 11.3718C41.3177 11.3015 41.2465 11.2312 41.2465 11.0184C41.2465 10.8769 41.3177 10.7353 41.3889 10.6641C41.5302 10.5938 41.6716 10.5938 41.8841 10.5938H44.0756V9.39021H41.7428C41.6116 9.39021 41.4916 9.39938 41.3777 9.41567C40.4299 9.5959 40.0455 10.2038 40.0455 10.8769C40.0455 12.4348 41.3889 12.3635 42.5197 12.4348C42.7323 12.4348 42.8736 12.5051 42.9448 12.5764C43.015 12.6466 43.0862 12.7882 43.0862 12.9297C43.0862 13.0712 43.015 13.2128 42.9448 13.284C42.8034 13.4256 42.6611 13.4256 42.4496 13.4256H40.1869V14.4876H42.4496C43.1563 14.4876 43.6516 14.2748 43.9343 13.9917C44.217 13.7087 44.3583 13.3553 44.3583 12.9297Z" fill="#4F5554"/>
</svg>
