<svg width="24" height="18" viewBox="0 0 24 18" fill="none" xmlns="http://www.w3.org/2000/svg">
<path d="M0 0V1.55844H14.25V13.2468H9.633C9.2985 11.9073 8.139 10.9091 6.75 10.9091C5.361 10.9091 4.2015 11.9073 3.867 13.2468H3V9.35065H1.5V14.8052H3.867C4.2015 16.1447 5.361 17.1429 6.75 17.1429C8.139 17.1429 9.2985 16.1447 9.633 14.8052H15.867C16.2015 16.1447 17.361 17.1429 18.75 17.1429C20.139 17.1429 21.2985 16.1447 21.633 14.8052H24V8.44987L23.9528 8.32753L22.4528 3.65221L22.29 3.11688H15.75V0H0ZM0.75 3.11688V4.67532H7.5V3.11688H0.75ZM15.75 4.67532H21.2108L22.5 8.66883V13.2468H21.633C21.2985 11.9073 20.139 10.9091 18.75 10.9091C17.361 10.9091 16.2015 11.9073 15.867 13.2468H15.75V4.67532ZM1.5 6.23377V7.79221H6V6.23377H1.5ZM6.75 12.4675C7.58775 12.4675 8.25 13.1556 8.25 14.026C8.25 14.8964 7.58775 15.5844 6.75 15.5844C5.91225 15.5844 5.25 14.8964 5.25 14.026C5.25 13.1556 5.91225 12.4675 6.75 12.4675ZM18.75 12.4675C19.5877 12.4675 20.25 13.1556 20.25 14.026C20.25 14.8964 19.5877 15.5844 18.75 15.5844C17.9123 15.5844 17.25 14.8964 17.25 14.026C17.25 13.1556 17.9123 12.4675 18.75 12.4675Z" fill="#27303A"/>
</svg>
