<svg
        width="27"
        height="22"
        viewBox="0 0 27 22"
        fill="#444848"
        xmlns="http://www.w3.org/2000/svg"
>
  <path
          d="M12.15 6.875C12.15 9.1575 10.341 11 8.1 11C5.859 11 4.05 9.1575 4.05 6.875C4.05 4.5925 5.859 2.75 8.1 2.75C10.341 2.75 12.15 4.5925 12.15 6.875ZM16.2 22H0V19.25C0 16.2113 3.6315 13.75 8.1 13.75C12.5685 13.75 16.2 16.2113 16.2 19.25V22ZM27 11V13.75H14.85V11H27ZM27 5.5V8.25H14.85V5.5H27ZM27 0V2.75H14.85V0H27Z"
          fill=""
  />
</svg>