<svg width="43" height="15" viewBox="0 0 43 15" fill="none" xmlns="http://www.w3.org/2000/svg">
    <path fill-rule="evenodd" clip-rule="evenodd" d="M10.6557 14.492H6.96709L4.20112 3.93965C4.06983 3.45424 3.79108 3.02511 3.38104 2.82286C2.35773 2.31459 1.23012 1.91008 0 1.70607V1.2998H5.94199C6.76207 1.2998 7.37713 1.91008 7.47964 2.61885L8.91479 10.2306L12.6016 1.2998H16.1876L10.6557 14.492ZM18.2379 14.492H14.7544L17.6229 1.2998H21.1064L18.2379 14.492ZM25.6132 4.95401C25.7158 4.24348 26.3308 3.83722 27.0484 3.83722C28.176 3.73521 29.4043 3.93922 30.4294 4.44574L31.0445 1.60539C30.0194 1.19913 28.8918 0.995117 27.8685 0.995117C24.4874 0.995117 22.0272 2.82243 22.0272 5.35851C22.0272 7.28784 23.7699 8.30086 25 8.91114C26.3308 9.51966 26.8434 9.92592 26.7409 10.5344C26.7409 11.4472 25.7158 11.8535 24.6925 11.8535C23.4623 11.8535 22.2322 11.5492 21.1064 11.041L20.4913 13.8831C21.7215 14.3896 23.0523 14.5936 24.2824 14.5936C28.0735 14.6938 30.4294 12.8683 30.4294 10.1282C30.4294 6.67756 25.6132 6.47531 25.6132 4.95401ZM42.6207 14.492L39.8547 1.2998H36.8837C36.2687 1.2998 35.6536 1.70607 35.4486 2.31459L30.3267 14.492H33.9127L34.6285 12.5644H39.0346L39.4447 14.492H42.6207ZM37.3964 4.85263L38.4197 9.82455H35.5512L37.3964 4.85263Z" fill="#4F5554"/>
</svg>
