<svg width="39" height="16" viewBox="0 0 39 16" fill="none" xmlns="http://www.w3.org/2000/svg">
    <mask id="mask0_301_3258" style="mask-type:luminance" maskUnits="userSpaceOnUse" x="0" y="0" width="39" height="16">
        <path d="M38.9595 0.5H0.959473V15.5H38.9595V0.5Z" fill="white"/>
    </mask>
    <g mask="url(#mask0_301_3258)">
        <path fill-rule="evenodd" clip-rule="evenodd" d="M18.8551 2.42461V6.03961H21.163C21.7124 6.03961 22.166 5.86049 22.5266 5.50401C22.7036 5.34054 22.844 5.14317 22.9394 4.92424C23.0347 4.70532 23.0827 4.46954 23.0805 4.23167C23.0805 3.7499 22.8953 3.3299 22.5266 2.97255C22.1669 2.60637 21.7124 2.42373 21.1621 2.42373L18.8551 2.42461ZM18.8551 7.31195V11.5058H17.4771V1.15137H21.1323C22.0612 1.15137 22.85 1.45137 23.4998 2.04784C24.1595 2.6452 24.4884 3.37402 24.4884 4.23167C24.4884 5.10873 24.1595 5.84195 23.4998 6.42872C22.86 7.01813 22.0712 7.31108 21.1323 7.31108L18.8551 7.31195ZM25.8809 9.33607C25.8809 9.68372 26.0345 9.97313 26.339 10.2043C26.6435 10.4355 27.0005 10.551 27.4098 10.551C27.989 10.551 28.5058 10.3437 28.9604 9.9299C29.415 9.5152 29.6418 9.02814 29.6418 8.46961C29.2116 8.14137 28.6125 7.97814 27.8435 7.97814C27.2833 7.97814 26.8179 8.10872 26.4429 8.36901C26.0688 8.6293 25.8809 8.95136 25.8809 9.33607ZM27.6646 4.18843C28.6839 4.18843 29.4882 4.45137 30.0773 4.97637C30.6665 5.50225 30.9611 6.22313 30.9611 7.13813V11.5058H29.6427V10.5219H29.583C29.0138 11.3319 28.2547 11.7369 27.3059 11.7369C26.4962 11.7369 25.8194 11.5058 25.2754 11.0425C24.7315 10.5802 24.4586 10.0014 24.4586 9.30783C24.4586 8.5746 24.7459 7.99225 25.3197 7.55814C25.8944 7.12401 26.6607 6.90695 27.6195 6.90695C28.4381 6.90695 29.1132 7.05166 29.6418 7.34107V7.03666C29.6418 6.57431 29.452 6.18078 29.0725 5.85873C28.7058 5.54012 28.2304 5.36701 27.7396 5.37343C26.9697 5.37343 26.3616 5.68755 25.9116 6.3149L24.698 5.57549C25.3667 4.6499 26.3562 4.18843 27.6646 4.18843ZM38.5272 4.41961L33.9277 14.6284H32.5036L34.2114 11.0566L31.1852 4.41961H32.6834L34.871 9.51077H34.9009L37.0289 4.41961H38.5272Z" fill="white"/>
        <path fill-rule="evenodd" clip-rule="evenodd" d="M13.2854 6.40805C13.2854 5.98981 13.2492 5.58569 13.1796 5.19922H7.36572V7.48981H10.6947C10.6259 7.85705 10.4813 8.20677 10.2697 8.51773C10.0581 8.82869 9.78398 9.09437 9.46395 9.29863V10.7863H11.451C12.6149 9.7504 13.2854 8.21864 13.2854 6.40805Z" fill="white"/>
        <path fill-rule="evenodd" clip-rule="evenodd" d="M7.36463 12.2226C9.02911 12.2226 10.4297 11.6949 11.4508 10.7861L9.46285 9.2976C8.91074 9.6576 8.19777 9.8676 7.36553 9.8676C5.75707 9.8676 4.39259 8.82113 3.90463 7.41113H1.85791V8.94466C2.37707 9.93385 3.16628 10.7636 4.13829 11.3421C5.11029 11.9206 6.22631 12.2253 7.36463 12.2226Z" fill="white"/>
        <path fill-rule="evenodd" clip-rule="evenodd" d="M3.90532 7.4105C3.6485 6.67239 3.6485 5.87213 3.90532 5.13403V3.59961H1.8586C1.42595 4.42681 1.20079 5.34255 1.20166 6.27138C1.20166 7.23226 1.43841 8.13932 1.8586 8.94314L3.90532 7.4105Z" fill="white"/>
        <path fill-rule="evenodd" clip-rule="evenodd" d="M7.36553 2.67827C8.27458 2.67827 9.08875 2.98003 9.73123 3.57032L11.4906 1.87356C10.4216 0.913554 9.02821 0.32326 7.36553 0.32326C6.22721 0.320543 5.11029 0.625285 4.13828 1.20379C3.16628 1.78229 2.37707 2.61201 1.85791 3.60121L3.90463 5.13474C4.39259 3.72562 5.75707 2.67827 7.36553 2.67827Z" fill="white"/>
    </g>
</svg>