<svg width="43" height="14" viewBox="0 0 43 14" fill="none" xmlns="http://www.w3.org/2000/svg">
    <path fill-rule="evenodd" clip-rule="evenodd" d="M10.6557 13.6959H6.96709L4.20112 3.14351C4.06983 2.6581 3.79108 2.22897 3.38104 2.02672C2.35773 1.51845 1.23012 1.11394 0 0.909928V0.503658H5.94199C6.76207 0.503658 7.37713 1.11394 7.47964 1.82271L8.91479 9.43446L12.6016 0.503658H16.1876L10.6557 13.6959ZM18.2379 13.6959H14.7544L17.6229 0.503658H21.1064L18.2379 13.6959ZM25.6132 4.15787C25.7158 3.44734 26.3308 3.04108 27.0484 3.04108C28.176 2.93907 29.4043 3.14308 30.4294 3.6496L31.0445 0.809248C30.0194 0.402988 28.8918 0.198975 27.8685 0.198975C24.4874 0.198975 22.0272 2.02629 22.0272 4.56237C22.0272 6.4917 23.7699 7.50472 25 8.115C26.3308 8.72352 26.8434 9.12978 26.7409 9.73826C26.7409 10.6511 25.7158 11.0574 24.6925 11.0574C23.4623 11.0574 22.2322 10.7531 21.1064 10.2449L20.4913 13.087C21.7215 13.5935 23.0523 13.7975 24.2824 13.7975C28.0735 13.8977 30.4294 12.0722 30.4294 9.33206C30.4294 5.88142 25.6132 5.67917 25.6132 4.15787ZM42.6207 13.6959L39.8547 0.503658H36.8837C36.2687 0.503658 35.6536 0.909928 35.4486 1.51845L30.3267 13.6959H33.9127L34.6285 11.7683H39.0346L39.4447 13.6959H42.6207ZM37.3964 4.05649L38.4197 9.02841H35.5512L37.3964 4.05649Z" fill="white"/>
</svg>