<svg width="55" height="14" viewBox="0 0 55 14" fill="none" xmlns="http://www.w3.org/2000/svg">
    <path d="M52.8635 9.89131C52.6627 9.89193 52.4641 9.93217 52.2789 10.0097C52.0937 10.0873 51.9256 10.2006 51.7843 10.3432C51.643 10.4859 51.5313 10.655 51.4555 10.8409C51.3797 11.0268 51.3413 11.2258 51.3425 11.4266C51.3413 11.627 51.3795 11.8256 51.455 12.0112C51.5305 12.1968 51.6419 12.3657 51.7826 12.5083C51.9234 12.6509 52.0909 12.7643 52.2756 12.8421C52.4602 12.92 52.6584 12.9607 52.8587 12.9619C53.2659 12.9619 53.6564 12.8002 53.9444 12.5122C54.2323 12.2243 54.394 11.8338 54.394 11.4266C54.394 11.0194 54.2323 10.6289 53.9444 10.341C53.6564 10.0531 53.2659 9.89131 52.8587 9.89131H52.8635ZM47.8606 8.70515C47.8816 8.26633 47.7708 7.83127 47.5423 7.45601C47.3139 7.08074 46.9784 6.78245 46.579 6.59954C46.1795 6.41664 45.7345 6.35751 45.3011 6.42975C44.8678 6.502 44.466 6.70233 44.1475 7.00492C43.8291 7.30752 43.6084 7.69854 43.5141 8.12761C43.4198 8.55669 43.4561 9.00417 43.6184 9.41243C43.7806 9.8207 44.0613 10.171 44.4244 10.4183C44.7875 10.6656 45.2164 10.7986 45.6557 10.8C45.9377 10.8064 46.2182 10.7571 46.4812 10.655C46.7442 10.5529 46.9845 10.4 47.1884 10.205C47.3922 10.0101 47.5557 9.77681 47.6694 9.51863C47.7831 9.26045 47.8448 8.9824 47.851 8.70036L47.8606 8.70515ZM47.8606 4.62054H50.2855V12.785H47.8606V12.2827C47.1574 12.7679 46.3234 13.0281 45.4691 13.0289C44.3275 13.0289 43.2326 12.5754 42.4253 11.7681C41.618 10.9608 41.1645 9.86593 41.1645 8.72428C41.1645 7.58262 41.618 6.48773 42.4253 5.68045C43.2326 4.87318 44.3275 4.41966 45.4691 4.41966C46.3241 4.42098 47.1583 4.68293 47.8606 5.17058V4.62054ZM28.4755 5.68235V4.63011H25.9932V12.785H28.4803V8.95864C28.4803 7.67204 29.8625 6.97852 30.8191 6.97852H30.8287V4.63011C30.3829 4.61951 29.9403 4.70847 29.5332 4.89049C29.1262 5.07252 28.7648 5.34304 28.4755 5.68235ZM22.296 8.70036C22.3151 8.26259 22.2027 7.82912 21.9734 7.45574C21.744 7.08236 21.4082 6.78614 21.0091 6.60522C20.61 6.4243 20.1659 6.36694 19.734 6.44054C19.302 6.51413 18.902 6.71531 18.5853 7.01818C18.2686 7.32105 18.0498 7.71175 17.9571 8.14001C17.8643 8.56826 17.9019 9.01448 18.0648 9.42123C18.2278 9.82798 18.5088 10.1767 18.8716 10.4224C19.2344 10.6681 19.6624 10.7996 20.1006 10.8C20.3826 10.8064 20.6632 10.7571 20.9262 10.655C21.1891 10.5529 21.4294 10.4 21.6333 10.205C21.8372 10.0101 22.0006 9.77681 22.1143 9.51863C22.228 9.26045 22.2898 8.9824 22.296 8.70036ZM22.296 4.61576H24.7161V12.785H22.3055V12.2827C21.6584 12.7223 20.9037 12.9772 20.1226 13.02C19.3415 13.0629 18.5635 12.892 17.8721 12.5259C17.1808 12.1597 16.6024 11.6121 16.1989 10.9419C15.7954 10.2717 15.5823 9.50418 15.5823 8.72189C15.5823 7.93959 15.7954 7.17209 16.1989 6.50186C16.6024 5.83163 17.1808 5.28401 17.8721 4.91787C18.5635 4.55172 19.3415 4.38089 20.1226 4.42373C20.9037 4.46657 21.6584 4.72146 22.3055 5.16101L22.296 4.61576ZM36.879 4.40053C36.4016 4.37224 35.9245 4.46119 35.4893 4.6596C35.0541 4.85801 34.6741 5.15988 34.3824 5.53886V4.63011H31.9909V12.785H34.4302V8.48035C34.4105 8.23473 34.4438 7.98774 34.528 7.75616C34.6122 7.52457 34.7453 7.31383 34.9181 7.13823C35.091 6.96263 35.2997 6.8263 35.5299 6.7385C35.7601 6.65069 36.0066 6.61347 36.2525 6.62937C37.3143 6.62937 37.9265 7.27027 37.9265 8.46122V12.7658H40.3466V7.59073C40.3466 5.67757 38.8496 4.40053 36.8982 4.40053H36.879ZM12.0988 12.785H14.6385V0.980757H12.0988V12.785ZM0.959473 12.785H3.64268V0.975975H0.959473V12.785ZM10.3531 0.971191C10.3586 2.21306 10.1189 3.44381 9.64782 4.59286C9.1767 5.74192 8.48342 6.78668 7.60771 7.66725L11.3192 12.7754H7.99991L3.96792 7.23679L5.00103 6.4524C5.84866 5.81414 6.53532 4.98653 7.00618 4.03567C7.47705 3.0848 7.71907 2.03702 7.71293 0.975975L10.3531 0.971191Z" fill="white"/>
</svg>