<svg width="73" height="14" viewBox="0 0 73 14" fill="none" xmlns="http://www.w3.org/2000/svg">
    <path d="M57.5707 3.39136L52.6492 13.5985H50.6102L52.4488 9.78568L49.5609 3.39136H51.6535L53.5102 7.67445L55.5371 3.39136H57.5707ZM38.8433 7.01561C38.8433 5.84345 37.9635 4.94076 36.8834 4.94076C35.8033 4.94076 34.9235 5.81382 34.9235 7.01561C34.9235 8.20529 35.8033 9.08978 36.8834 9.08978C37.9635 9.08978 38.8433 8.18777 38.8433 7.01561ZM33.1331 13.5985V3.39136H34.9054V4.33111C35.4394 3.66621 36.2341 3.25731 37.1809 3.25731C39.1288 3.25731 40.6585 4.86734 40.6585 6.99675C40.6585 9.12617 39.0986 10.749 37.138 10.749C36.2281 10.749 35.4816 10.3892 34.9603 9.77894V13.5918H33.1331V13.5985ZM47.0542 7.01561C47.0542 5.79496 46.1744 4.94076 45.0943 4.94076C44.0141 4.94076 43.1337 5.81382 43.1337 7.01561C43.1337 8.20529 44.0141 9.08978 45.0943 9.08978C46.1744 9.08978 47.0542 8.23021 47.0542 7.01561ZM47.0663 10.6398V9.69944C46.5322 10.3529 45.7375 10.755 44.7907 10.755C42.8121 10.755 41.3131 9.16321 41.3131 7.01561C41.3131 4.8862 42.873 3.26337 44.8329 3.26337C45.7556 3.26337 46.5322 3.67228 47.0663 4.30686V3.39136H48.8386V10.6398H47.0663ZM29.9349 4.09937C29.9349 4.09937 30.3838 3.25731 31.4948 3.25731C31.9679 3.25731 32.2721 3.42168 32.2721 3.42168V5.27017C32.2721 5.27017 31.604 4.85588 30.9909 4.94076C30.3785 5.02631 29.9898 5.58747 29.9898 6.34398V10.6392H28.1572V3.39136H29.9289V4.0987L29.9349 4.09937ZM71.3337 2.98246L69.2344 1.7746L67.1036 0.548542C65.6965 -0.26321 63.9363 0.756028 63.9363 2.39099V2.66517C63.9363 2.81808 64.0154 2.9582 64.1487 3.03163L65.1384 3.59885C65.2008 3.63448 65.2715 3.65299 65.3433 3.65253C65.4151 3.65208 65.4856 3.63266 65.5476 3.59624C65.6096 3.55982 65.661 3.50766 65.6967 3.44498C65.7323 3.38231 65.751 3.31132 65.7508 3.23912V2.58567C65.7508 2.26232 66.0965 2.06157 66.376 2.21988L68.3178 3.34286L70.2536 4.4591C70.3174 4.49556 70.3704 4.54838 70.4074 4.61215C70.4443 4.67593 70.4637 4.7484 70.4637 4.8222C70.4637 4.89599 70.4443 4.96847 70.4074 5.03224C70.3704 5.09601 70.3174 5.14884 70.2536 5.1853L68.3178 6.30154L66.376 7.42384C66.3123 7.46031 66.2403 7.47933 66.167 7.47899C66.0938 7.47866 66.0219 7.459 65.9586 7.42196C65.8953 7.38491 65.8428 7.33179 65.8063 7.26793C65.7698 7.20406 65.7507 7.13169 65.7508 7.05805V6.73469C65.7508 5.09974 63.9912 4.07444 62.5834 4.89225L60.4527 6.11831L58.3534 7.32617C56.9395 8.14399 56.9395 10.2 58.3534 11.0178L60.4533 12.2256L62.5834 13.4517C63.9906 14.2634 65.7508 13.2442 65.7508 11.6092V11.335C65.7517 11.2604 65.7324 11.1868 65.695 11.1223C65.6576 11.0578 65.6035 11.0046 65.5384 10.9686L64.5494 10.4014C64.4869 10.3656 64.4161 10.3469 64.3442 10.3473C64.2723 10.3477 64.2018 10.367 64.1397 10.4035C64.0775 10.4399 64.0261 10.4922 63.9904 10.5549C63.9547 10.6177 63.936 10.6888 63.9363 10.7611V11.4145C63.9363 11.7379 63.5905 11.9386 63.3111 11.7803L61.3693 10.6574L59.4335 9.54113C59.3699 9.50453 59.317 9.45166 59.2802 9.38791C59.2434 9.32415 59.224 9.25175 59.224 9.17803C59.224 9.10432 59.2434 9.03193 59.2802 8.96817C59.317 8.90441 59.3699 8.85154 59.4335 8.81493L61.37 7.6987L63.3111 6.5764C63.3748 6.53993 63.4468 6.52091 63.5201 6.52123C63.5933 6.52156 63.6652 6.54124 63.7285 6.57829C63.7918 6.61533 63.8443 6.66844 63.8808 6.73231C63.9172 6.79616 63.9364 6.86855 63.9363 6.94218V7.26553C63.9363 8.90049 65.6965 9.92579 67.1043 9.10798L69.2344 7.88193L71.3337 6.6734C72.7475 5.85019 72.7475 3.80027 71.3337 2.98246ZM7.78477 7.93649C7.39681 9.60244 5.97093 10.749 4.12627 10.749C1.99549 10.749 0.394043 9.13896 0.394043 7.00954C0.394043 4.88013 2.02027 3.25731 4.15641 3.25731C5.95887 3.25731 7.36665 4.40385 7.77339 6.03948H5.89789C5.5642 5.38604 4.90285 4.95356 4.16914 4.95356C3.1004 4.95356 2.20855 5.83807 2.20855 7.00954C2.20855 8.18104 3.1004 9.06553 4.16847 9.06553C4.5367 9.06848 4.89777 8.96319 5.20727 8.7626C5.51678 8.56203 5.76125 8.27489 5.91062 7.93649H7.78477ZM8.62904 10.6331V0.407749H10.4436V10.6338L8.62904 10.6331ZM13.1741 7.49189C13.3014 8.56501 14.0659 9.16928 15.0308 9.16928C15.796 9.16928 16.3843 8.80888 16.7301 8.22954H18.5875C18.1566 9.76682 16.785 10.749 14.9826 10.749C12.8042 10.749 11.2812 9.21173 11.2812 7.02774C11.2812 4.84376 12.8953 3.26337 15.0248 3.26337C17.173 3.26337 18.7268 4.85588 18.7268 7.02774C18.7268 7.18605 18.7148 7.34436 18.6846 7.49122L13.1741 7.49189ZM16.7911 6.35677C16.6637 5.41703 15.8992 4.84981 15.0067 4.84981C14.1148 4.84981 13.3805 5.39884 13.1922 6.35677H16.7911ZM25.2076 10.6331V9.69339C24.6736 10.3468 23.8849 10.749 22.9321 10.749C20.9601 10.749 19.4612 9.15648 19.4612 7.00954C19.4612 4.88013 21.0144 3.25731 22.975 3.25731C23.897 3.25731 24.6736 3.66015 25.2076 4.30012V3.3853H26.9799V10.627H25.2076V10.6331ZM25.1896 7.00887C25.1896 5.79495 24.3098 4.93469 23.2296 4.93469C22.1495 4.93469 21.2697 5.80101 21.2697 7.00954C21.2697 8.19921 22.1495 9.08372 23.2296 9.08372C24.3098 9.08372 25.1896 8.22954 25.1896 7.00887Z" fill="white"/>
</svg>
