<svg width="45" height="16" viewBox="0 0 45 16" fill="none" xmlns="http://www.w3.org/2000/svg">
    <path fill-rule="evenodd" clip-rule="evenodd" d="M41.8475 0.246826H38.6655V1.09606L38.2414 0.246826H34.9181V1.09606L34.494 0.246826H29.9676C29.1907 0.246826 28.5541 0.388365 27.9887 0.671441V0.246826H24.8067V0.671441C24.4528 0.388365 24.0287 0.246826 23.4633 0.246826H12.0787L11.2997 2.01657L10.5228 0.246826H6.91575V1.09606L6.56287 0.246826H3.45105L2.03649 3.57451L0.410411 7.18526L0.38092 7.25654H4.06222L4.08765 7.18526L4.51273 6.12322H5.43102L5.8561 7.25654H9.95641V6.40629L10.3103 7.25654H12.3604L12.7143 6.40629V7.25654H22.543V5.41553H22.6854H22.6854C22.7466 5.41553 22.7813 5.41553 22.801 5.43271C22.8267 5.45522 22.8267 5.50722 22.8267 5.62732V7.18526H27.9175V6.76065C28.3416 6.97347 28.9782 7.18526 29.8263 7.18526H31.9486L32.3727 6.05296H33.3622L33.7862 7.18526H37.8875V6.12322L38.5241 7.18526H41.8475V0.246826ZM14.6943 1.2376V6.1945H13.5634V2.29964L13.4923 2.46257V2.46053L11.8469 6.1945H10.8055L9.10826 2.29964V6.1945H6.70422L6.20898 5.13245H3.80494L3.30969 6.1945H2.067L4.15883 1.2376H5.92627L7.90624 5.98168V1.2376H9.77941L9.81301 1.30888H9.81501L10.7069 3.25274L11.3475 4.70987L11.3709 4.63655L12.7845 1.2376H14.6943ZM19.5735 1.23862V2.29964H16.8156V3.22015H19.5024V4.21194H16.8156V5.20373H19.5735V6.26476H15.6136V1.23862H19.5735ZM25.0162 2.55116C24.9999 3.30467 24.5169 3.71808 24.1701 3.85759C24.1701 3.85759 24.406 3.90544 24.6175 4.12539C24.6181 4.12655 24.6194 4.12739 24.6207 4.12827C24.6212 4.12861 24.6218 4.12895 24.6223 4.12932C24.6227 4.12968 24.6232 4.13005 24.6236 4.13048C24.6501 4.15797 24.6735 4.18648 24.6928 4.21398C24.828 4.39217 24.9379 4.6559 24.943 5.04386C24.944 5.05099 24.944 5.0571 24.944 5.06422C24.944 5.06626 24.9443 5.06804 24.9445 5.06982C24.9448 5.0716 24.945 5.07339 24.945 5.07543V5.08153C24.946 5.12023 24.947 5.15994 24.947 5.20373V6.1945H23.8874V5.62834C23.8874 5.34425 23.8874 4.91963 23.6748 4.63655C23.6077 4.56935 23.5406 4.52556 23.4664 4.494C23.3606 4.42578 23.1593 4.42476 22.8267 4.42476H21.5535V6.1945H20.3515V1.23862H23.0382C23.6748 1.23862 24.0989 1.23862 24.4528 1.45041C24.7996 1.65916 25.008 2.00435 25.0162 2.55116ZM25.7962 1.2376H26.9982V6.1945H25.7962V1.2376ZM40.7868 1.30888V6.1945H39.2309L36.9682 2.44118V5.55706L36.9611 5.54994V6.19755H35.7662V6.1945H34.5642L34.1401 5.13245H31.6649L31.2408 6.26476H29.8975C29.3321 6.26476 28.6243 6.12322 28.2002 5.6986C27.7761 5.27399 27.5636 4.70783 27.5636 3.78733C27.5636 3.07963 27.705 2.37092 28.2002 1.80477C28.5531 1.37914 29.1897 1.2376 29.9676 1.2376H31.0995V2.29964H29.9676C29.5436 2.29964 29.3321 2.37092 29.0483 2.58374C28.8368 2.79554 28.6955 3.22015 28.6955 3.71605C28.6955 4.2822 28.7656 4.63655 29.0483 4.91963C29.2609 5.13245 29.5436 5.20373 29.8975 5.20373H30.3917L32.0178 1.30888H33.7862L35.7662 6.05296V1.30888H37.5336L39.5838 4.77809V1.30888H40.7868ZM4.22858 4.07117H5.78449L5.00654 2.08862L4.22858 4.07117ZM12.502 10.7253V11.6458H15.1186V12.6366H12.502V13.6996H15.4013L16.7447 12.2119L15.4715 10.7253H12.502ZM32.088 4.07117L32.9372 2.08862L33.7151 4.07117H32.088ZM20.0672 14.2676V10.2312L18.2286 12.2138L20.0672 14.2676ZM22.7563 10.7253C23.1803 10.7253 23.463 10.9381 23.5342 11.3627C23.5342 11.7873 23.2515 11.9991 22.8274 11.9991H21.2715V10.7253H22.7563ZM28.482 11.8588C28.6233 11.7875 28.6945 11.5747 28.6945 11.3629C28.7657 11.0798 28.6233 10.9383 28.482 10.867C28.3406 10.7957 28.1281 10.7957 27.9166 10.7957H26.502V11.929H27.9166C28.1281 11.929 28.3406 11.929 28.482 11.8588ZM23.6129 3.30255C23.6333 3.28015 23.6526 3.25469 23.6678 3.22618C23.7319 3.12436 23.8062 2.94209 23.7665 2.69261C23.7645 2.66919 23.7604 2.64781 23.7553 2.62744C23.7548 2.62477 23.7545 2.6221 23.7543 2.61928C23.754 2.61672 23.7538 2.61405 23.7533 2.61115H23.7523C23.7167 2.48998 23.6272 2.41564 23.5377 2.37084C23.3953 2.29956 23.1838 2.29956 22.9712 2.29956H21.5567V3.43289H22.9712C23.1838 3.43289 23.3963 3.43289 23.5377 3.36161C23.559 3.35143 23.5773 3.33616 23.5956 3.31986L23.5967 3.32088L23.6129 3.30255ZM44.9585 13.4167L44.9544 13.4126C44.9574 13.3668 44.9595 13.322 44.9595 13.2751C44.9595 12.7803 44.8181 12.2844 44.6056 11.93V8.74382H44.6025V8.53101H41.1978C40.7565 8.53101 40.2216 8.95664 40.2216 8.95664V8.53101H36.9684C36.4732 8.53101 35.8376 8.67356 35.5549 8.95664V8.53101H29.7563V8.95562C29.3322 8.60229 28.5543 8.53101 28.2004 8.53101H24.3818V8.95562C24.0289 8.60229 23.1798 8.53101 22.7547 8.53101H18.5131L17.5226 9.59305L16.6032 8.53101H10.2403V15.6833H16.4629L17.4849 14.6589L18.3707 15.6833H22.3316V14.0541H22.6855C23.1798 14.0541 23.8164 14.0541 24.3116 13.8413V15.7536H27.4936V13.9126H27.6339C27.7402 13.9126 27.7933 13.9126 27.8199 13.9391C27.8465 13.9657 27.8465 14.0189 27.8465 14.1254V15.7536H37.4637C38.1003 15.7536 38.7358 15.612 39.0897 15.329V15.7536H42.1304C42.767 15.7536 43.4036 15.6833 43.8276 15.3992C44.4785 15.0082 44.8893 14.3158 44.9503 13.49C44.9534 13.4655 44.9564 13.4411 44.9585 13.4167ZM24.6767 10.6562C24.7143 10.8028 24.7357 10.9657 24.7357 11.151C24.7357 12.5674 23.7452 12.8505 22.6855 12.8505H21.271V14.6915H18.9463L17.5937 13.1336L17.5887 13.1387L17.5226 13.0623L15.9677 14.6915H11.4423V9.73561H16.0378L17.2937 11.1123L17.5582 11.4005L17.5937 11.3639L19.0785 9.73561H22.8259C23.554 9.73561 24.3686 9.91483 24.6767 10.6562ZM29.9678 11.0095C29.9678 11.7885 29.4736 12.2131 29.1197 12.3556C29.4736 12.4962 29.6851 12.6377 29.7563 12.7803C29.8976 12.9921 29.9678 13.2751 29.9678 13.7008V14.6915H28.7658V14.0541C28.7658 13.771 28.7658 13.2751 28.5543 13.0623C28.4129 12.8505 28.1292 12.8505 27.7051 12.8505H26.4329V14.6915H25.2309V9.66433H27.9177C28.4831 9.66433 28.9783 9.66433 29.3322 9.87715C29.6851 10.0889 29.9678 10.4433 29.9678 11.0095ZM30.6756 9.66433H34.6356V10.7264H31.8776V11.6469H34.5644V12.6377H31.8776V13.6295H34.6356V14.6915H30.6756V9.66433ZM39.0897 12.0715C39.3023 12.2844 39.4436 12.6387 39.4436 13.1336C39.4436 14.1956 38.807 14.6915 37.605 14.6915H35.3423V13.6295H37.605C37.8165 13.6295 37.9589 13.6295 38.1003 13.4879C38.1714 13.4167 38.2416 13.2751 38.2416 13.1336C38.2416 12.9921 38.1714 12.8505 38.1003 12.7803C38.0291 12.709 37.8877 12.6387 37.6762 12.6387C37.5824 12.6327 37.4871 12.6278 37.3912 12.6229C36.3308 12.568 35.201 12.5095 35.201 11.0808C35.201 10.3731 35.625 9.59407 36.8982 9.59407H39.2311V10.7977H37.0396C36.8271 10.7977 36.6857 10.7977 36.5443 10.868C36.403 10.9392 36.403 11.0808 36.403 11.2223C36.403 11.4351 36.5443 11.5054 36.6857 11.5757C36.827 11.6469 36.9684 11.6469 37.1098 11.6469H37.7464C38.383 11.6469 38.807 11.7885 39.0897 12.0715ZM44.089 12.88C44.1012 12.9595 44.1103 13.0419 44.1103 13.1336C44.1103 13.5592 43.969 13.9126 43.6863 14.1956C43.4036 14.4787 42.9083 14.6915 42.2016 14.6915H39.9389V13.6295H42.2016C42.4131 13.6295 42.5554 13.6295 42.6968 13.4879C42.767 13.4167 42.8382 13.2751 42.8382 13.1336C42.8382 12.9921 42.767 12.8505 42.6968 12.7803C42.6256 12.709 42.4843 12.6387 42.2717 12.6387C42.1779 12.6327 42.0827 12.6278 41.9869 12.6228C40.9273 12.568 39.7975 12.5095 39.7975 11.0808C39.7975 10.4077 40.1819 9.79976 41.1297 9.61953C41.2436 9.60324 41.3636 9.59407 41.4948 9.59407H43.8276V10.7977H41.6361C41.4236 10.7977 41.2822 10.7977 41.1409 10.868C41.0697 10.9392 40.9985 11.0808 40.9985 11.2223C40.9985 11.4351 41.0697 11.5054 41.2822 11.5757C41.4236 11.6469 41.565 11.6469 41.7063 11.6469H42.3429C42.6521 11.6469 42.8849 11.6846 43.0995 11.76C43.2948 11.8312 43.9436 12.1214 44.089 12.88Z" fill="white"/>
</svg>
