<svg width="26" height="20" viewBox="0 0 26 20" fill="none" xmlns="http://www.w3.org/2000/svg">
    <path fill-rule="evenodd" clip-rule="evenodd" d="M12.2577 14.4534L12.0691 14.3017C10.2326 12.7106 9.17707 10.4059 9.17707 7.98338C9.17707 5.56087 10.2373 3.25622 12.0809 1.66898C12.1358 1.61245 12.1938 1.55894 12.2545 1.50868C11.0215 0.690703 9.53443 0.216101 7.93535 0.216101C3.62958 0.216101 0.137146 3.6939 0.137146 7.98338C0.137146 12.2768 3.62957 15.7507 7.94008 15.7507C9.4766 15.7543 10.9795 15.3027 12.2577 14.4534ZM13.2643 1.50868C14.5437 0.661271 16.047 0.211393 17.5835 0.216101C21.8892 0.216101 25.3809 3.6939 25.3809 7.98338C25.3809 12.2768 21.8885 15.7507 17.578 15.7507C16.0413 15.7549 14.5383 15.3033 13.2603 14.4534C13.3235 14.4033 13.3864 14.3527 13.4489 14.3017C15.2854 12.7066 16.3418 10.4028 16.3418 7.98338C16.3411 6.78495 16.0814 5.6007 15.5803 4.51113C15.0792 3.42157 14.3485 2.45222 13.4378 1.66898C13.3881 1.61555 13.3266 1.56212 13.2643 1.50868ZM10.5633 4.5908C11.0794 3.53352 11.8304 2.60715 12.7594 1.88192C13.6883 2.60723 14.4392 3.53362 14.9553 4.59088C15.4715 5.64815 15.7392 6.80855 15.7383 7.98417C15.7395 9.09565 15.5005 10.1944 15.0376 11.2057C14.5746 12.2171 13.8985 13.1173 13.0552 13.8452C12.9574 13.9309 12.8627 14.0126 12.7594 14.0904C11.83 13.3647 11.0787 12.4376 10.5626 11.3796C10.0464 10.3217 9.77903 9.16045 9.78057 7.98417C9.77952 6.80853 10.0472 5.64809 10.5633 4.5908ZM5.46874 18.442V19.7408H4.97077V18.5935C4.97077 18.2472 4.81931 18.0523 4.51618 18.0523C4.23476 18.0523 4.01841 18.2256 4.01841 18.5935V19.7408H3.56382V18.5935C3.56382 18.2472 3.41216 18.0523 3.10924 18.0523C2.80612 18.0523 2.61127 18.2256 2.61127 18.5935V19.7408H2.15668V17.6627H2.61127V17.9224C2.78452 17.6843 3.00087 17.6194 3.21741 17.6194C3.54213 17.6194 3.75857 17.7493 3.91004 17.9874C4.10489 17.706 4.38632 17.6194 4.64605 17.6194C5.16562 17.6194 5.46874 17.944 5.46874 18.442ZM11.4649 17.6627H12.2008V18.0739H11.4649V19.0048C11.4649 19.2213 11.5515 19.3512 11.7679 19.3512C11.8762 19.3512 12.0277 19.3295 12.1575 19.2429L12.2875 19.6326C12.1358 19.7192 11.9195 19.7841 11.7246 19.7841C11.2051 19.7841 11.0102 19.5027 11.0102 19.0265V18.0739H10.599V17.6627H11.0103V17.035H11.4649V17.6627ZM15.5129 17.9224C15.6211 17.7493 15.7943 17.6193 16.054 17.6193C16.1406 17.6193 16.2705 17.6194 16.3571 17.6411L16.2272 18.074C16.1406 18.0524 16.0323 18.0307 15.9458 18.0307C15.6643 18.0307 15.5129 18.2256 15.5129 18.5719V19.7408H15.0583V17.6627H15.5129V17.9224ZM9.38675 17.6194C9.71147 17.6194 10.0145 17.6843 10.231 17.8359L10.0362 18.2039C9.90632 18.1389 9.64659 18.0307 9.38675 18.0307C9.14861 18.0307 8.99715 18.1173 8.99715 18.2689C8.99715 18.3987 9.14861 18.4419 9.34346 18.4636L9.55991 18.4853C9.9929 18.5502 10.2743 18.745 10.2743 19.113C10.2743 19.5027 9.92792 19.7841 9.32177 19.7841C8.99715 19.7841 8.67243 19.6975 8.43429 19.5243L8.65074 19.178C8.8023 19.2862 9.04044 19.3945 9.34346 19.3945C9.64659 19.3945 9.81974 19.2862 9.81974 19.1347C9.81974 19.0265 9.68987 18.9615 9.45173 18.9183L9.23529 18.8966C8.7807 18.8316 8.52097 18.6369 8.52097 18.2905C8.52097 17.8792 8.86728 17.6194 9.38675 17.6194ZM21.7688 17.9224C21.8771 17.7493 22.0502 17.6194 22.3101 17.6194C22.3966 17.6194 22.5265 17.6194 22.6131 17.6411L22.4832 18.074C22.3966 18.0524 22.2884 18.0307 22.2017 18.0307C21.9204 18.0307 21.7688 18.2256 21.7688 18.5719V19.7408H21.3142V17.6627H21.7688V17.9224ZM17.6126 19.7841C16.9415 19.7841 16.5086 19.3295 16.5086 18.7017C16.5086 18.074 16.9415 17.6194 17.6126 17.6194C17.9157 17.6194 18.1321 17.6843 18.3486 17.8576L18.1321 18.2256C17.959 18.0956 17.7858 18.0307 17.5909 18.0307C17.2229 18.0523 16.9632 18.3121 16.9632 18.7017C16.9632 19.113 17.2229 19.3728 17.5909 19.3728C17.7858 19.3728 17.959 19.3079 18.1321 19.178L18.3486 19.546C18.1321 19.7192 17.9157 19.7841 17.6126 19.7841ZM20.7082 17.6627V18.7017V19.7408H20.2536V19.4811C20.1237 19.6759 19.9072 19.7841 19.6041 19.7841C19.0197 19.7841 18.5651 19.3295 18.5651 18.7017C18.5651 18.074 19.0197 17.6194 19.6041 17.6194C19.8856 17.6194 20.102 17.7277 20.2536 17.9224V17.6627H20.7082ZM19.669 18.0307C19.2794 18.0307 19.0413 18.3337 19.0413 18.7017C19.0413 19.0698 19.2794 19.3511 19.669 19.3728C20.037 19.3728 20.2969 19.0698 20.2969 18.7017C20.2969 18.3121 20.037 18.0307 19.669 18.0307ZM12.5688 18.7017C12.5688 18.0523 13.0018 17.6194 13.608 17.6194C14.1925 17.6194 14.5821 18.0523 14.5604 18.7234V18.8965H13.0234C13.0884 19.2646 13.3698 19.3945 13.6512 19.3945C13.8677 19.3945 14.0841 19.3079 14.2573 19.178L14.4738 19.5027C14.2357 19.6975 13.9326 19.7841 13.6296 19.7841C13.0017 19.7841 12.5688 19.3512 12.5688 18.7017ZM14.1274 18.507C14.0842 18.1823 13.8893 18.009 13.608 18.009C13.2832 18.009 13.0884 18.2256 13.0451 18.507H14.1274ZM24.886 16.8401V18.7017V19.7408H24.4314V19.4811C24.3016 19.6759 24.0851 19.7841 23.782 19.7841C23.1975 19.7841 22.7429 19.3295 22.7429 18.7017C22.7429 18.074 23.1975 17.6194 23.782 17.6194C24.0634 17.6194 24.2799 17.7277 24.4314 17.9224V16.8401H24.886ZM23.847 18.0307C23.4573 18.0307 23.2192 18.3337 23.2192 18.7017C23.2192 19.0698 23.4573 19.3511 23.847 19.3728C24.215 19.3728 24.4747 19.0698 24.4747 18.7017C24.4747 18.3121 24.215 18.0307 23.847 18.0307ZM8.023 17.6627V18.7017V19.7408H7.56841V19.4811C7.43854 19.6759 7.2221 19.7841 6.91898 19.7841C6.33452 19.7841 5.87994 19.3295 5.87994 18.7017C5.87994 18.074 6.33452 17.6194 6.91898 17.6194C7.20041 17.6194 7.41685 17.7277 7.56841 17.9224V17.6627H8.023ZM6.96227 18.0307C6.57266 18.0307 6.33452 18.3337 6.33452 18.7017C6.33452 19.0698 6.57266 19.3511 6.96227 19.3728C7.33027 19.3728 7.59011 19.0698 7.59011 18.7017C7.59011 18.3121 7.33027 18.0307 6.96227 18.0307Z" fill="white"/>
</svg>