<svg width="60" height="16" viewBox="0 0 60 16" fill="none" xmlns="http://www.w3.org/2000/svg">
    <path fill-rule="evenodd" clip-rule="evenodd" d="M56.2814 0.52429L54.4135 12.4092C54.3768 12.6395 54.5551 12.8471 54.7874 12.8471H56.6654C56.9774 12.8471 57.2423 12.6207 57.2903 12.3128L59.1324 0.641939C59.1691 0.411566 58.9907 0.203369 58.7585 0.203369H56.6556C56.4699 0.203985 56.31 0.339807 56.2814 0.52429ZM35.5555 0.203986H40.1079C41.6312 0.203986 42.7778 0.606212 43.4242 1.36601C44.0131 2.05836 44.2093 3.04669 44.0051 4.3045C43.5527 7.17954 41.8227 8.63045 38.8239 8.63045H37.3837C37.073 8.63045 36.8075 8.85652 36.7595 9.16481L36.2371 12.4732C36.2032 12.6888 36.0175 12.8471 35.8004 12.8471H33.4646C33.2321 12.8471 33.0537 12.6395 33.0904 12.4092L34.9312 0.737723C34.9799 0.430354 35.2448 0.203986 35.5555 0.203986ZM37.9295 6.10005C39.1367 6.10005 40.3847 6.10005 40.633 4.46681C40.7241 3.89303 40.6515 3.47787 40.4125 3.19821C40.0121 2.72977 39.236 2.72977 38.4146 2.72977H38.0998C37.9129 2.72977 37.7545 2.86559 37.7259 3.04977L37.2433 6.10005H37.9295ZM51.5341 4.41445H53.7122C53.9459 4.41445 54.1243 4.62296 54.0882 4.8524L52.9096 12.3124C52.8609 12.6204 52.596 12.8468 52.2853 12.8468H50.3228C50.089 12.8468 49.9107 12.6392 49.9474 12.4076L50.0444 11.8018C50.0444 11.8018 48.9683 13.0498 47.0277 13.0498C45.8971 13.0498 44.9479 12.7236 44.2823 11.941C43.5582 11.0897 43.2635 9.86917 43.4711 8.59288C43.8717 6.03384 45.9282 4.20964 48.3369 4.20964C49.3871 4.20964 50.4386 4.43847 50.9104 5.12343L51.0635 5.34426L51.1599 4.73475C51.1879 4.55027 51.3469 4.41445 51.5341 4.41445ZM48.215 10.7377C49.4755 10.7377 50.4651 9.90181 50.6742 8.65663C50.7706 8.0536 50.6388 7.50662 50.3056 7.11455C49.9739 6.72649 49.4709 6.52107 48.8519 6.52107C47.6107 6.52107 46.607 7.38404 46.4095 8.61875C46.3082 9.22425 46.4293 9.76815 46.7514 10.15C47.0763 10.5348 47.5833 10.7377 48.215 10.7377ZM3.09129 0.204346H7.64278C9.16608 0.204346 10.3136 0.606572 10.9604 1.36637C11.5495 2.05872 11.7445 3.04705 11.5409 4.30486C11.0888 7.1799 9.35857 8.63081 6.36033 8.63081H4.91949C4.60867 8.63081 4.34312 8.85688 4.29523 9.16517L3.79873 12.3131C3.75016 12.6211 3.48526 12.8475 3.1738 12.8475H1.00087C0.76727 12.8475 0.588914 12.6399 0.625502 12.4095L2.46636 0.738083C2.51493 0.430714 2.77982 0.204346 3.09129 0.204346ZM5.46456 6.10041C6.67115 6.10041 7.91904 6.10041 8.1679 4.46717C8.25906 3.89339 8.18576 3.47822 7.94707 3.19857C7.54639 2.73013 6.77097 2.73013 5.94905 2.73013H5.63426C5.4479 2.73013 5.28818 2.86595 5.25957 3.05013L4.77772 6.10041H5.46456ZM19.0687 4.41481H21.2483C21.4811 4.41481 21.6588 4.62331 21.6216 4.85276L20.4435 12.3128C20.3943 12.6208 20.1309 12.8472 19.8186 12.8472H17.8552C17.623 12.8472 17.4447 12.6396 17.4813 12.408L17.5787 11.8022C17.5787 11.8022 16.5023 13.0501 14.5616 13.0501C13.431 13.0501 12.4806 12.724 11.8163 11.9414C11.0922 11.0901 10.7962 9.86953 11.0044 8.59324C11.4051 6.0342 13.4621 4.21 15.8709 4.21C16.9211 4.21 17.9732 4.43883 18.445 5.12379L18.5975 5.34462L18.6939 4.73511C18.7225 4.55063 18.883 4.41481 19.0687 4.41481ZM15.7511 10.7381C17.0113 10.7381 17.9997 9.90217 18.21 8.65699C18.3052 8.05396 18.1734 7.50697 17.8414 7.11491C17.51 6.72685 17.0067 6.52142 16.388 6.52142C15.1468 6.52142 14.1419 7.3844 13.9454 8.61911C13.8428 9.22461 13.9654 9.76851 14.2875 10.1504C14.6121 10.5351 15.1182 10.7381 15.7511 10.7381ZM32.8566 4.4145H30.6662C30.4574 4.4145 30.2609 4.51829 30.1426 4.69199L27.1216 9.14176L25.8413 4.8657C25.7606 4.59806 25.5139 4.4145 25.2342 4.4145H23.082C22.8203 4.4145 22.6385 4.67013 22.722 4.91621L25.1345 11.9962L22.8661 15.198C22.6878 15.4502 22.8677 15.797 23.1757 15.797H25.3633C25.5709 15.797 25.7652 15.6957 25.8832 15.5254L33.1679 5.01014C33.3423 4.75852 33.1633 4.4145 32.8566 4.4145Z" fill="white"/>
</svg>