<svg width="34" height="23" viewBox="0 0 34 23" fill="none" xmlns="http://www.w3.org/2000/svg">
<path d="M31.274 22.2691H2.32182C1.73116 22.2691 1.16469 22.0344 0.747027 21.6168C0.329366 21.1991 0.0947266 20.6326 0.0947266 20.042L0.0947266 10.6733H1.69916L2.06106 9.79735H2.87117L3.23214 10.6696H6.38905V10.0061L6.67115 10.6743H8.30991L8.59201 9.99501V10.6724H16.436V9.23965H16.5845C16.6903 9.24336 16.7209 9.25264 16.7209 9.42896V10.6743H20.7789V10.3411C21.1936 10.5518 21.6827 10.6752 22.2014 10.6752L22.2896 10.6743H22.2849H23.9924L24.358 9.80199H25.1681L25.5253 10.6743H28.8159V9.84468L29.3133 10.6743H31.9449V5.19562H29.3402V5.84241L28.9755 5.19562H26.2974V5.84241L25.9624 5.19562H22.3462C21.7983 5.16793 21.2524 5.28069 20.7603 5.52319L20.7798 5.51484V5.19562H18.2854V5.51484C17.9835 5.27687 17.6022 5.16303 17.2192 5.19655H17.2248H8.10948L7.49795 6.61168L6.86973 5.19655H3.99863V5.84334L3.6822 5.19655H1.2324L0.0975104 7.79483V2.22709C0.0975104 1.63643 0.33215 1.06996 0.749811 0.6523C1.16747 0.234639 1.73394 0 2.3246 0H31.2768C31.8675 0 32.4339 0.234639 32.8516 0.6523C33.2693 1.06996 33.5039 1.63643 33.5039 2.22709V11.9521H31.7658C31.738 11.9502 31.7046 11.9502 31.6721 11.9502C31.2694 11.9502 30.8954 12.0708 30.5836 12.2778L30.591 12.2731V11.9521H28.0206C27.619 11.9299 27.2217 12.044 26.8931 12.2759L26.8987 12.2722V11.9511H22.309V12.2722C21.9333 12.0603 21.509 11.9497 21.0777 11.9511H21.0415H21.0433H18.0154V12.2722C17.6198 12.0188 17.1504 11.906 16.6829 11.9521L16.6912 11.9511H13.3032L12.5275 12.79L11.8018 11.9511H6.74074V17.4335H11.7072L12.5061 16.5816L13.2587 17.4335H16.32V16.1501H16.7469C17.1573 16.1662 17.5667 16.0976 17.9495 15.9488L17.9291 15.9562V17.4354H20.4531V16.0072H20.5747C20.7287 16.0072 20.7445 16.0128 20.7445 16.1687V17.4363H28.415L28.5087 17.4381C28.9486 17.4381 29.3587 17.3064 29.7002 17.0809L29.6919 17.0855V17.4363H32.125L32.241 17.4381C32.6966 17.4381 33.1299 17.3444 33.5234 17.1746L33.502 17.1829V20.0429C33.502 20.6336 33.2674 21.2 32.8497 21.6177C32.4321 22.0354 31.8656 22.27 31.275 22.27L31.274 22.2691ZM19.6792 16.6651H18.7346V12.7353H20.9023C21.2938 12.699 21.688 12.7648 22.0464 12.9264L22.0316 12.9209C22.322 13.0805 22.516 13.3848 22.516 13.7337L22.5141 13.7959V13.7931L22.5151 13.8284C22.5151 14.2794 22.2432 14.6673 21.8534 14.8362L21.846 14.8389C22.0325 14.9057 22.1884 15.0199 22.3044 15.1674L22.3063 15.1693C22.4373 15.3862 22.4921 15.6406 22.4622 15.8922L22.4631 15.8866V16.6642H21.5203V16.1724C21.5649 15.9046 21.5112 15.6298 21.369 15.3985L21.3718 15.4031C21.2739 15.3288 21.1618 15.2751 21.0425 15.2452C20.9232 15.2154 20.7991 15.2101 20.6777 15.2296L20.6833 15.2287H19.6792V16.6642V16.6651ZM19.6792 13.5472V14.4297H20.8206C20.9818 14.4446 21.144 14.4157 21.2902 14.3462L21.2846 14.349C21.3443 14.3104 21.3934 14.2575 21.4275 14.1951C21.4615 14.1327 21.4794 14.0628 21.4795 13.9917L21.4785 13.9704V13.9713C21.4831 13.9004 21.4675 13.8296 21.4335 13.7672C21.3995 13.7048 21.3485 13.6533 21.2864 13.6187L21.2846 13.6177C21.1438 13.5548 20.9891 13.5292 20.8355 13.5435H20.8392L19.6792 13.5472ZM11.3044 16.6642H7.58611V12.7353H11.3629L12.5182 14.0233L13.7125 12.7353H16.7126C17.7778 12.7353 18.2956 13.1593 18.2956 14.0298C18.2956 14.916 17.7602 15.3465 16.6624 15.3465H15.4886V16.6633H13.6633L12.5071 15.3651L11.3054 16.6642H11.3044ZM14.5532 13.1566L13.1112 14.7062L14.5532 16.306V13.1566ZM8.52242 15.0635V15.8448H10.8312L11.8983 14.6923L10.872 13.5472H8.52149V14.2617H10.5834V15.0626L8.52242 15.0635ZM15.4886 13.5481V14.5485H16.7014C17.0726 14.5485 17.286 14.3592 17.286 14.0288C17.286 13.7133 17.0874 13.5472 16.7116 13.5472L15.4886 13.5481ZM32.227 16.6661H30.4138V15.8216H32.2196C32.3547 15.8403 32.4917 15.8049 32.601 15.7233L32.6001 15.7242C32.6349 15.6919 32.6627 15.6527 32.6817 15.6091C32.7007 15.5655 32.7105 15.5184 32.7105 15.4709V15.456C32.7106 15.4091 32.7004 15.3626 32.6807 15.32C32.661 15.2774 32.6322 15.2396 32.5964 15.2092C32.5003 15.1398 32.3819 15.1087 32.2642 15.122H32.266L32.0925 15.1164C31.2443 15.0941 30.2839 15.0681 30.2839 13.9054C30.2839 13.3394 30.6384 12.7353 31.6304 12.7353H33.502V13.5723H31.79C31.6577 13.5575 31.5241 13.5841 31.4076 13.6484L31.4114 13.6465C31.3656 13.6767 31.3287 13.7186 31.3047 13.7679C31.2807 13.8172 31.2704 13.8721 31.275 13.9268V13.9258V13.936C31.275 13.9986 31.2947 14.0595 31.3313 14.1101C31.368 14.1608 31.4197 14.1986 31.4791 14.2181L31.481 14.2191C31.5986 14.2553 31.7218 14.2704 31.8447 14.2636H31.8419L32.3514 14.2766C32.7354 14.2383 33.1191 14.3526 33.4195 14.5949L33.4167 14.593C33.4445 14.6153 33.4686 14.6394 33.49 14.6663L33.4909 14.6673L33.502 16.1631C33.346 16.3455 33.1475 16.4867 32.924 16.5742C32.7005 16.6617 32.4589 16.693 32.2205 16.6651L32.227 16.6661ZM28.5625 16.6661H26.7326V15.8216H28.5533C28.6895 15.8395 28.8274 15.8043 28.9384 15.7233L28.9365 15.7242C28.9712 15.6917 28.9988 15.6525 29.0176 15.6089C29.0364 15.5653 29.0461 15.5183 29.046 15.4709V15.4616C29.046 15.4138 29.0358 15.3666 29.0161 15.3231C28.9964 15.2796 28.9677 15.2408 28.9319 15.2092C28.8341 15.1397 28.7142 15.1087 28.595 15.122H28.5969L28.4243 15.1164C27.5789 15.0941 26.6194 15.0681 26.6194 13.9054C26.6194 13.3394 26.972 12.7353 27.9622 12.7353H29.844V13.5723H28.1218C27.9904 13.5576 27.8578 13.5842 27.7422 13.6484L27.7459 13.6465C27.6972 13.6801 27.6584 13.7261 27.6337 13.7799C27.609 13.8337 27.5992 13.8931 27.6055 13.952C27.6118 14.0108 27.6338 14.0668 27.6693 14.1142C27.7048 14.1615 27.7525 14.1984 27.8072 14.2209L27.809 14.2218C27.9282 14.2584 28.053 14.2735 28.1774 14.2664H28.1747L28.6804 14.2794C29.0664 14.2422 29.4518 14.3567 29.755 14.5986L29.7522 14.5958C29.8542 14.7082 29.9317 14.8406 29.9799 14.9845C30.0282 15.1284 30.046 15.2807 30.0324 15.4319V15.4273C30.0352 16.2466 29.5387 16.6642 28.5598 16.6642L28.5625 16.6661ZM26.1703 16.6661H23.0338V12.7343H26.1675V13.5463H23.971V14.2608H26.1164V15.0616H23.971V15.843L26.1703 15.8467V16.6633V16.6661ZM27.9983 9.905H26.0858L25.7202 9.02901H23.7697L23.4152 9.905H22.3165C21.8231 9.93101 21.3372 9.77554 20.9505 9.46793L20.9552 9.47071C20.7715 9.26797 20.632 9.02917 20.5458 8.76954C20.4595 8.50991 20.4283 8.23515 20.4541 7.96279L20.4531 7.97021C20.4292 7.69283 20.462 7.41348 20.5494 7.14915C20.6368 6.88482 20.7771 6.64103 20.9617 6.43259L20.9598 6.43444C21.1547 6.26406 21.3825 6.13559 21.6292 6.05705C21.8758 5.9785 22.136 5.95156 22.3935 5.97789L22.3861 5.97696H23.2955V6.8149H22.4046C22.2743 6.79811 22.1418 6.81028 22.0167 6.85054C21.8916 6.8908 21.7769 6.95816 21.6808 7.04782L21.6818 7.04689C21.4833 7.30097 21.387 7.62002 21.4117 7.94144V7.9368C21.3821 8.26703 21.4749 8.59662 21.6725 8.8629L21.6697 8.85919C21.8542 9.00995 22.0903 9.08256 22.3276 9.06148H22.3239H22.7452L24.0731 5.97139H25.4836L27.0732 9.68322V5.97139H28.5032L30.1531 8.70701V5.97139H31.1181V9.8985H29.7782L27.9965 6.94946V9.8985L27.9983 9.905ZM24.7514 6.64045L24.1046 8.20684H25.401L24.7514 6.64045ZM15.6584 9.90314H14.7193V5.97418H16.8796C17.2739 5.93326 17.672 6.00029 18.0312 6.16812L18.0173 6.16255C18.1617 6.24242 18.2821 6.3595 18.366 6.50163C18.4498 6.64377 18.4941 6.80576 18.4942 6.9708L18.4924 7.03576V7.03297V7.06174C18.4924 7.27606 18.4307 7.48584 18.3145 7.66591C18.1982 7.84598 18.0325 7.9887 17.8372 8.07692L17.8298 8.07971C18.0163 8.15023 18.1732 8.26344 18.2929 8.4082L18.2947 8.41006C18.4271 8.62774 18.4817 8.88389 18.4497 9.13665L18.4506 9.13108V9.90221H17.5032L17.4995 9.40668V9.33245C17.5332 9.09016 17.4796 8.84378 17.3482 8.63741L17.351 8.64205C17.2527 8.56984 17.1411 8.51783 17.0226 8.489C16.9041 8.46017 16.7811 8.4551 16.6606 8.47409L16.6662 8.47316H15.6593V9.90221L15.6584 9.90314ZM15.6584 6.79171V7.66398H16.7979C16.9589 7.68145 17.1215 7.65247 17.2665 7.58047L17.2619 7.58232C17.3213 7.54619 17.3705 7.49537 17.4046 7.43475C17.4387 7.37414 17.4567 7.30576 17.4568 7.2362L17.4558 7.21021V7.21114C17.4606 7.14063 17.4445 7.07028 17.4097 7.00877C17.375 6.94727 17.3229 6.89729 17.26 6.86501L17.2582 6.86409C17.117 6.8035 16.9632 6.77803 16.81 6.78985H16.8128L15.6584 6.79171ZM5.71442 9.90314H3.80655L3.44557 9.02715H1.48944L1.12568 9.90314H0.104934L1.78732 5.97418H3.18203L4.77905 9.69249V5.97418H6.3111L7.53971 8.63834L8.66903 5.97418H10.2326V9.90128H9.26756L9.26571 6.8279L7.9044 9.90221H7.08037L5.71535 6.82326V9.90221L5.71442 9.90314ZM2.46287 6.64045L1.82351 8.20684H3.10594L2.46287 6.64045ZM19.9901 9.90221H19.0324V5.97418H19.991V9.90128L19.9901 9.90221ZM14.0642 9.90221H10.9332V5.97418H14.0697V6.79078H11.8723V7.49881H14.0168V8.3052H11.8705V9.09025H14.0679V9.90128L14.0642 9.90221Z" fill="#2C70CA"/>
</svg>
