<svg width="60" height="16" viewBox="0 0 60 16" fill="none" xmlns="http://www.w3.org/2000/svg">
    <path fill-rule="evenodd" clip-rule="evenodd" d="M7.64315 0.000976562H3.09166C2.78019 0.000976562 2.5153 0.227345 2.46673 0.534714L0.625868 12.2061C0.58928 12.4365 0.767636 12.6441 1.00124 12.6441H3.17417C3.48563 12.6441 3.75053 12.4177 3.7991 12.1097L4.2956 8.9618C4.34349 8.65351 4.60904 8.42744 4.91986 8.42744H6.3607C9.35894 8.42744 11.0892 6.97653 11.5413 4.10149C11.7449 2.84368 11.5499 1.85535 10.9608 1.163C10.314 0.403203 9.16645 0.000976562 7.64315 0.000976562ZM8.16827 4.2638C7.91941 5.89704 6.67152 5.89704 5.46493 5.89704H4.77809L5.25994 2.84676C5.28855 2.66258 5.44827 2.52676 5.63463 2.52676H5.94942C6.77134 2.52676 7.54676 2.52676 7.94744 2.9952C8.18613 3.27485 8.25943 3.69002 8.16827 4.2638ZM21.2487 4.21144H19.0691C18.8834 4.21144 18.7229 4.34726 18.6943 4.53174L18.5979 5.14125L18.4454 4.92042C17.9736 4.23546 16.9215 4.00663 15.8713 4.00663C13.4625 4.00663 11.4055 5.83083 11.0048 8.38987C10.7966 9.66616 11.0926 10.8867 11.8167 11.738C12.481 12.5206 13.4314 12.8467 14.562 12.8467C16.5027 12.8467 17.5791 11.5988 17.5791 11.5988L17.4817 12.2046C17.4451 12.4362 17.6234 12.6438 17.8556 12.6438H19.819C20.1313 12.6438 20.3947 12.4174 20.4439 12.1094L21.622 4.64939C21.6592 4.41994 21.4815 4.21144 21.2487 4.21144ZM18.2104 8.45362C18.0001 9.6988 17.0117 10.5347 15.7515 10.5347C15.1186 10.5347 14.6125 10.3317 14.2879 9.94704C13.9658 9.56514 13.8432 9.02124 13.9458 8.41574C14.1423 7.18103 15.1472 6.31805 16.3884 6.31805C17.0071 6.31805 17.5104 6.52348 17.8418 6.91154C18.1738 7.3036 18.3056 7.85059 18.2104 8.45362ZM30.6666 4.21113H32.857C33.1637 4.21113 33.3427 4.55515 33.1683 4.80677L25.8836 15.322C25.7656 15.4923 25.5713 15.5936 25.3637 15.5936H23.1761C22.8681 15.5936 22.6882 15.2468 22.8665 14.9946L25.1349 11.7928L22.7224 4.71284C22.6389 4.46676 22.8207 4.21113 23.0824 4.21113H25.2346C25.5143 4.21113 25.761 4.39469 25.8417 4.66233L27.122 8.93839L30.143 4.48862C30.2613 4.31492 30.4578 4.21113 30.6666 4.21113Z" fill="#4F5554"/>
    <path fill-rule="evenodd" clip-rule="evenodd" d="M54.4138 12.2058L56.2817 0.320921C56.3103 0.136438 56.4702 0.00061597 56.6559 0H58.7588C58.991 0 59.1694 0.208197 59.1327 0.43857L57.2906 12.1094C57.2426 12.4173 56.9777 12.6437 56.6657 12.6437H54.7877C54.5554 12.6437 54.3771 12.4361 54.4138 12.2058ZM40.1082 0.000616806H35.5558C35.2451 0.000616806 34.9802 0.226985 34.9315 0.534354L33.0907 12.2058C33.0541 12.4361 33.2324 12.6437 33.4649 12.6437H35.8007C36.0178 12.6437 36.2035 12.4854 36.2374 12.2698L36.7598 8.96144C36.8078 8.65315 37.0733 8.42708 37.384 8.42708H38.8242C41.823 8.42708 43.553 6.97617 44.0054 4.10113C44.2096 2.84332 44.0134 1.85499 43.4245 1.16264C42.7781 0.402843 41.6315 0.000616806 40.1082 0.000616806ZM40.6333 4.26344C40.385 5.89668 39.1371 5.89668 37.9298 5.89668H37.2436L37.7262 2.8464C37.7548 2.66222 37.9132 2.5264 38.1001 2.5264H38.4149C39.2363 2.5264 40.0124 2.5264 40.4128 2.99484C40.6518 3.2745 40.7244 3.68966 40.6333 4.26344ZM53.7125 4.21108H51.5344C51.3472 4.21108 51.1882 4.3469 51.1602 4.53138L51.0638 5.14089L50.9107 4.92006C50.4389 4.2351 49.3874 4.00627 48.3372 4.00627C45.9285 4.00627 43.872 5.83047 43.4714 8.38951C43.2638 9.6658 43.5585 10.8863 44.2826 11.7376C44.9482 12.5202 45.8974 12.8464 47.028 12.8464C48.9686 12.8464 50.0447 11.5984 50.0447 11.5984L49.9477 12.2042C49.911 12.4358 50.0893 12.6434 50.3231 12.6434H52.2856C52.5963 12.6434 52.8612 12.417 52.9099 12.109L54.0885 4.64903C54.1246 4.41959 53.9462 4.21108 53.7125 4.21108ZM50.6745 8.45326C50.4654 9.69844 49.4758 10.5343 48.2153 10.5343C47.5836 10.5343 47.0766 10.3314 46.7517 9.94668C46.4296 9.56478 46.3085 9.02088 46.4098 8.41538C46.6073 7.18067 47.611 6.3177 48.8522 6.3177C49.4712 6.3177 49.9742 6.52312 50.3059 6.91118C50.6391 7.30325 50.7709 7.85023 50.6745 8.45326Z" fill="#4F5554"/>
</svg>
