<svg width="39" height="16" viewBox="0 0 39 16" fill="none" xmlns="http://www.w3.org/2000/svg">
    <g clip-path="url(#clip0_4966_34399)">
        <path fill-rule="evenodd" clip-rule="evenodd" d="M18.1026 2.22148V5.83648H20.4105C20.9599 5.83648 21.4135 5.65736 21.7741 5.30089C21.9511 5.13741 22.0916 4.94004 22.1869 4.72111C22.2822 4.50219 22.3303 4.26641 22.328 4.02854C22.328 3.54677 22.1428 3.12677 21.7741 2.76942C21.4144 2.40324 20.9599 2.2206 20.4096 2.2206H18.1026V2.22148ZM18.1026 7.10883V11.3027H16.7246V0.948242H20.3798C21.3087 0.948242 22.0976 1.24824 22.7473 1.84471C23.407 2.44207 23.7359 3.17089 23.7359 4.02854C23.7359 4.9056 23.407 5.63883 22.7473 6.2256C22.1075 6.81501 21.3187 7.10795 20.3798 7.10795H18.1026V7.10883ZM25.1284 9.13295C25.1284 9.4806 25.282 9.77001 25.5865 10.0012C25.891 10.2324 26.248 10.3479 26.6573 10.3479C27.2365 10.3479 27.7534 10.1406 28.2079 9.72677C28.6625 9.31207 28.8893 8.82501 28.8893 8.26648C28.4591 7.93824 27.86 7.77501 27.091 7.77501C26.5308 7.77501 26.0654 7.9056 25.6904 8.16589C25.3163 8.42618 25.1293 8.74824 25.1293 9.13295H25.1284ZM26.9121 3.9853C27.9314 3.9853 28.7357 4.24824 29.3248 4.77324C29.914 5.29912 30.2086 6.02001 30.2086 6.93501V11.3027H28.8902V10.3188H28.8305C28.2613 11.1288 27.5022 11.5338 26.5534 11.5338C25.7437 11.5338 25.0669 11.3027 24.5229 10.8394C23.979 10.3771 23.7061 9.79824 23.7061 9.10471C23.7061 8.37148 23.9934 7.78912 24.5672 7.35501C25.1419 6.92089 25.9082 6.70383 26.867 6.70383C27.6856 6.70383 28.3607 6.84854 28.8893 7.13795V6.83354C28.8893 6.37118 28.6995 5.97765 28.32 5.6556C27.9533 5.337 27.4779 5.16389 26.9871 5.1703C26.2172 5.1703 25.6091 5.48442 25.1591 6.11177L23.9455 5.37236C24.6142 4.44677 25.6037 3.98442 26.9121 3.98442V3.9853ZM37.7747 4.21648L33.1752 14.4253H31.7511L33.4589 10.8535L30.4327 4.21648H31.9309L34.1186 9.30765H34.1484L36.2764 4.21648H37.7747Z" fill="#4F5554"/>
        <path fill-rule="evenodd" clip-rule="evenodd" d="M12.533 6.20492C12.533 5.78668 12.4968 5.38256 12.4272 4.99609H6.61328V7.28668H9.94225C9.87344 7.65392 9.72884 8.00364 9.51726 8.3146C9.30569 8.62556 9.03154 8.89124 8.71151 9.0955V10.5832H10.6986C11.8625 9.54727 12.533 8.01551 12.533 6.20492Z" fill="#4F5554"/>
        <path fill-rule="evenodd" clip-rule="evenodd" d="M6.61219 12.0195C8.27667 12.0195 9.6773 11.4918 10.6984 10.583L8.71041 9.09448C8.1583 9.45448 7.44533 9.66448 6.61309 9.66448C5.00463 9.66448 3.64015 8.61801 3.15219 7.20801H1.10547V8.74154C1.62463 9.73073 2.41384 10.5605 3.38585 11.139C4.35785 11.7175 5.47477 12.0222 6.61309 12.0195" fill="#4F5554"/>
        <path fill-rule="evenodd" clip-rule="evenodd" d="M3.15288 7.20737C2.89606 6.46926 2.89606 5.669 3.15288 4.9309V3.39648H1.10616C0.673513 4.22368 0.448348 5.13942 0.449221 6.06825C0.449221 7.02913 0.685973 7.93619 1.10616 8.74001L3.15198 7.20737H3.15288Z" fill="#4F5554"/>
        <path fill-rule="evenodd" clip-rule="evenodd" d="M6.61309 2.47514C7.52214 2.47514 8.33631 2.7769 8.97879 3.36719V3.36808L10.7382 1.67043C9.66916 0.710429 8.27577 0.120135 6.61309 0.120135C5.47477 0.117418 4.35785 0.42216 3.38584 1.00066C2.41384 1.57916 1.62463 2.40888 1.10547 3.39808L3.15219 4.93161C3.64015 3.52249 5.00463 2.47602 6.61309 2.47602" fill="#4F5554"/>
    </g>
    <defs>
        <clipPath id="clip0_4966_34399">
            <rect width="38" height="15" fill="white" transform="translate(0.207031 0.296875)"/>
        </clipPath>
    </defs>
</svg>
