<svg width="1130" height="186" viewBox="0 0 1130 186" fill="none" xmlns="http://www.w3.org/2000/svg">
  <g clip-path="url(#clip0_310_1199)">
    <g clip-path="url(#clip1_310_1199)">
      <path fill-rule="evenodd" clip-rule="evenodd" d="M0.127686 0H123.956C158.126 0 185.87 27.7437 185.87 61.9141H62.0418C96.2121 61.9141 123.956 89.6578 123.956 123.828H0.127686V61.9141V0ZM0.127686 123.828V185.742H62.0418C62.0418 151.572 34.2981 123.828 0.127686 123.828Z" fill="#0D00FF"/>
    </g>
    <path d="M1129.31 164.381H1110.68V96.5545C1110.68 89.7646 1109.01 84.2026 1105.69 79.8687C1102.51 75.5347 1096.45 73.3677 1087.49 73.3677C1080.7 73.3677 1075.28 74.8123 1071.24 77.7017C1067.19 80.4465 1064.23 84.2027 1062.35 88.97C1060.62 93.7374 1059.75 99.0827 1059.75 105.006L1058.45 96.1211C1059.17 89.6201 1060.91 83.4081 1063.65 77.485C1066.54 71.4174 1070.59 66.5778 1075.79 62.9661C1081.13 59.21 1087.85 57.3319 1095.94 57.3319C1106.2 57.3319 1114.29 60.3657 1120.21 66.4333C1126.28 72.3564 1129.31 80.8799 1129.31 92.0038V164.381ZM1059.75 164.381H1041.11V19.1929H1059.75V164.381Z" fill="white"/>
    <path d="M973.198 166.549C963.086 166.549 954.345 164.31 946.978 159.831C939.61 155.353 933.903 148.996 929.858 140.762C925.813 132.527 923.791 122.92 923.791 111.941C923.791 100.817 925.813 91.2098 929.858 83.1197C933.903 74.8852 939.61 68.5286 946.978 64.0502C954.345 59.5717 963.086 57.3325 973.198 57.3325C986.778 57.3325 997.613 60.8719 1005.7 67.9508C1013.79 74.8852 1019.07 83.6254 1021.52 94.1714L1003.1 101.756C1002.09 93.3768 999.202 86.5147 994.435 81.1694C989.812 75.8242 982.805 73.1516 973.415 73.1516C967.058 73.1516 961.569 74.6685 956.946 77.7023C952.467 80.736 949 85.1423 946.544 90.9209C944.088 96.6995 942.86 103.706 942.86 111.941C942.86 120.175 944.088 127.182 946.544 132.961C949 138.739 952.467 143.218 956.946 146.396C961.569 149.43 967.058 150.947 973.415 150.947C982.805 150.947 989.812 148.274 994.435 142.929C999.202 137.439 1002.09 130.577 1003.1 122.342L1021.52 129.71C1019.07 140.256 1013.79 149.069 1005.7 156.147C997.613 163.082 986.778 166.549 973.198 166.549Z" fill="white"/>
    <path d="M904.249 164.382H885.613V96.5551C885.613 89.7652 883.952 84.2032 880.629 79.8692C877.451 75.5353 871.383 73.3683 862.426 73.3683C855.636 73.3683 850.219 74.8129 846.174 77.7023C842.129 80.4471 839.167 84.2032 837.289 88.9706C835.555 93.738 834.689 99.0832 834.689 105.006L833.388 96.1217C834.111 89.6207 835.844 83.4087 838.589 77.4855C841.479 71.418 845.524 66.5784 850.724 62.9667C856.07 59.2106 862.787 57.3325 870.877 57.3325C881.135 57.3325 889.225 60.3663 895.148 66.4339C901.215 72.357 904.249 80.8805 904.249 92.0044V164.382ZM834.689 164.382H816.052V59.4995H834.689V164.382Z" fill="white"/>
    <path d="M789.664 42.5964H771.028V19.1929H789.664V42.5964ZM789.664 164.381H771.028V59.4989H789.664V164.381Z" fill="white"/>
    <path d="M673.797 164.381H655.161V19.1929H673.797V164.381ZM738.374 104.572H661.446V87.8865H738.374V104.572ZM752.459 35.8787H661.446V19.1929H752.459V35.8787Z" fill="white"/>
    <path d="M584.257 166.549C574.433 166.549 565.693 164.31 558.036 159.831C550.524 155.353 544.601 149.069 540.267 140.978C536.077 132.744 533.983 123.065 533.983 111.941C533.983 100.817 536.077 91.2098 540.267 83.1197C544.456 74.8852 550.235 68.5286 557.603 64.0502C565.115 59.5717 573.639 57.3325 583.173 57.3325C592.997 57.3325 601.448 59.4273 608.527 63.6168C615.751 67.6619 621.24 73.4405 624.996 80.9527C628.897 88.465 630.847 97.4219 630.847 107.823C630.847 109.413 630.775 111.002 630.631 112.591C630.486 114.035 630.269 115.263 629.98 116.275H548.285V102.623H618.712L614.161 109.124C614.161 97.2774 611.417 88.3205 605.927 82.2529C600.437 76.1853 592.853 73.1516 583.173 73.1516C573.639 73.1516 566.054 76.3298 560.42 82.6863C554.93 88.8984 552.185 98.2887 552.185 110.857V113.241C552.185 121.187 553.486 127.976 556.086 133.611C558.686 139.245 562.37 143.579 567.138 146.613C572.05 149.502 577.756 150.947 584.257 150.947C591.336 150.947 597.042 149.863 601.376 147.696C605.855 145.529 609.394 142.856 611.994 139.678C614.595 136.356 616.545 133.249 617.845 130.36L629.33 143.362C625.43 149.574 619.796 154.992 612.428 159.615C605.06 164.237 595.67 166.549 584.257 166.549Z" fill="white"/>
    <path d="M458.749 166.549C451.959 166.549 446.036 165.249 440.98 162.648C435.923 159.903 432.023 155.931 429.278 150.73C426.678 145.529 425.377 139.317 425.377 132.094V59.4995H444.014V127.543C444.014 134.333 445.675 139.895 448.998 144.229C452.32 148.563 458.388 150.73 467.2 150.73C473.99 150.73 479.408 149.285 483.453 146.396C487.498 143.507 490.387 139.678 492.121 134.911C493.999 130.143 494.938 124.87 494.938 119.092L496.238 127.976C495.516 134.477 493.71 140.69 490.821 146.613C488.076 152.391 484.031 157.159 478.685 160.915C473.485 164.671 466.839 166.549 458.749 166.549ZM513.574 164.382H494.938V59.4995H513.574V164.382Z" fill="white"/>
    <path d="M399.64 164.381H381.003V19.1929H399.64V164.381Z" fill="white"/>
    <path d="M308.026 164.381H258.185V147.696H304.993C316.55 147.696 325.001 145.745 330.346 141.845C335.836 137.944 338.581 131.66 338.581 122.992C338.581 117.069 337.136 112.301 334.247 108.69C331.358 105.078 327.457 102.478 322.545 100.888C317.633 99.1549 311.999 98.2881 305.643 98.2881H258.185V81.3856H303.476C309.11 81.3856 314.022 80.7355 318.211 79.4353C322.545 77.9906 325.94 75.6069 328.396 72.2842C330.852 68.9615 332.08 64.4108 332.08 58.6321C332.08 52.8535 330.78 48.375 328.179 45.1968C325.723 41.8741 322.256 39.4904 317.778 38.0457C313.444 36.601 308.387 35.8787 302.609 35.8787H258.185V19.1929H309.11C318.356 19.1929 326.085 20.782 332.297 23.9603C338.653 26.994 343.421 31.328 346.599 36.9622C349.922 42.4519 351.583 48.8807 351.583 56.2484C351.583 60.149 350.933 63.9051 349.633 67.5168C348.332 71.1285 346.238 74.3789 343.348 77.2683C340.603 80.1576 337.064 82.6135 332.73 84.636C328.396 86.5141 323.123 87.8143 316.911 88.5366C327.168 89.5479 335.258 91.7871 341.181 95.2543C347.249 98.7215 351.583 103.055 354.183 108.256C356.784 113.457 358.084 119.163 358.084 125.376C358.084 133.61 356.061 140.689 352.016 146.612C348.116 152.391 342.409 156.797 334.897 159.831C327.529 162.864 318.572 164.381 308.026 164.381ZM266.42 164.381H247.784V19.1929H266.42V164.381Z" fill="white"/>
  </g>
  <defs>
    <clipPath id="clip0_310_1199">
      <rect width="1129.18" height="185.742" fill="white" transform="translate(0.127686)"/>
    </clipPath>
    <clipPath id="clip1_310_1199">
      <rect width="185.742" height="185.742" fill="white" transform="translate(0.127686)"/>
    </clipPath>
  </defs>
</svg>
