<svg width="29" height="23" viewBox="0 0 29 23" fill="none" xmlns="http://www.w3.org/2000/svg">
<path d="M5.22289 22.221V20.7429C5.22289 20.1762 4.87792 19.8068 4.28663 19.8068C3.99104 19.8068 3.67076 19.9053 3.44901 20.2256C3.27664 19.9546 3.03032 19.8068 2.66077 19.8068C2.41434 19.8068 2.16812 19.8806 1.97095 20.1517V19.8561H1.45361V22.221H1.97095V20.9153C1.97095 20.4966 2.1927 20.2995 2.53767 20.2995C2.88241 20.2995 3.05501 20.5212 3.05501 20.9153V22.221H3.57234V20.9153C3.57234 20.4966 3.81856 20.2995 4.13883 20.2995C4.4838 20.2995 4.65617 20.5212 4.65617 20.9153V22.221H5.22289ZM12.8843 19.8561H12.0468V19.1417H11.5295V19.8561H11.0614V20.324H11.5294V21.4081C11.5294 21.9501 11.7511 22.2703 12.3424 22.2703C12.5642 22.2703 12.8104 22.1964 12.983 22.0979L12.8351 21.6544C12.6873 21.7529 12.5149 21.7776 12.3917 21.7776C12.1453 21.7776 12.0468 21.6298 12.0468 21.3834V20.324H12.8843V19.8561ZM17.2695 19.8067C16.9739 19.8067 16.7768 19.9546 16.6536 20.1517V19.8561H16.1363V22.221H16.6536V20.8907C16.6536 20.4966 16.826 20.2749 17.1462 20.2749C17.2448 20.2749 17.368 20.2996 17.4665 20.3241L17.6143 19.8315C17.5158 19.8068 17.368 19.8068 17.2695 19.8068V19.8067ZM10.6426 20.0531C10.3962 19.8806 10.0513 19.8068 9.68176 19.8068C9.09058 19.8068 8.69646 20.1024 8.69646 20.5705C8.69646 20.9647 8.99205 21.1863 9.50939 21.2603L9.75571 21.285C10.0267 21.3341 10.1745 21.4081 10.1745 21.5313C10.1745 21.7037 9.97746 21.8269 9.6325 21.8269C9.28764 21.8269 9.01663 21.7037 8.84414 21.5806L8.59782 21.9747C8.86883 22.1717 9.23838 22.2703 9.60781 22.2703C10.2976 22.2703 10.6919 21.9501 10.6919 21.5066C10.6919 21.0878 10.3716 20.8661 9.87882 20.7922L9.6325 20.7675C9.41075 20.7428 9.23838 20.6937 9.23838 20.5459C9.23838 20.3734 9.41075 20.2749 9.68176 20.2749C9.97746 20.2749 10.2731 20.398 10.4208 20.4719L10.6426 20.0531ZM24.3891 19.8068C24.0934 19.8068 23.8963 19.9546 23.7731 20.1517V19.8561H23.2558V22.221H23.7731V20.8907C23.7731 20.4966 23.9456 20.2749 24.2658 20.2749C24.3644 20.2749 24.4876 20.2996 24.5862 20.3241L24.7339 19.8315C24.6354 19.8068 24.4876 19.8068 24.3891 19.8068ZM17.7868 21.0385C17.7868 21.7529 18.2795 22.2703 19.0432 22.2703C19.3881 22.2703 19.6344 22.1964 19.8807 21.9994L19.6344 21.5806C19.4373 21.7284 19.2403 21.8022 19.0185 21.8022C18.5997 21.8022 18.3041 21.5066 18.3041 21.0385C18.3041 20.5952 18.5997 20.2995 19.0185 20.2749C19.2403 20.2749 19.4373 20.3487 19.6344 20.4966L19.8807 20.0778C19.6344 19.8806 19.3881 19.8068 19.0432 19.8068C18.2795 19.8068 17.7868 20.3241 17.7868 21.0385ZM22.5661 21.0385V19.8561H22.0487V20.1517C21.8762 19.93 21.6299 19.8068 21.3096 19.8068C20.6445 19.8068 20.1272 20.3241 20.1272 21.0385C20.1272 21.7529 20.6445 22.2703 21.3096 22.2703C21.6545 22.2703 21.9009 22.1472 22.0487 21.9254V22.221H22.5661V21.0385ZM20.6691 21.0385C20.6691 20.6197 20.9401 20.2749 21.3835 20.2749C21.8023 20.2749 22.098 20.5952 22.098 21.0385C22.098 21.4573 21.8023 21.8022 21.3835 21.8022C20.9401 21.7775 20.6691 21.4573 20.6691 21.0385ZM14.4857 19.8068C13.7959 19.8068 13.3031 20.2995 13.3031 21.0385C13.3031 21.7776 13.7958 22.2703 14.5103 22.2703C14.8551 22.2703 15.2001 22.1717 15.4711 21.9501L15.2247 21.5806C15.0276 21.7284 14.7813 21.8269 14.535 21.8269C14.2147 21.8269 13.8944 21.6791 13.8205 21.2602H15.5697V21.0632C15.5943 20.2995 15.1508 19.8068 14.4856 19.8068H14.4857ZM14.4857 20.2502C14.8059 20.2502 15.0277 20.4474 15.0769 20.8169H13.8452C13.8944 20.4966 14.1162 20.2502 14.4857 20.2502ZM27.3206 21.0385V18.9199H26.8033V20.1517C26.6308 19.93 26.3845 19.8068 26.0642 19.8068C25.3991 19.8068 24.8817 20.3241 24.8817 21.0385C24.8817 21.7529 25.3991 22.2703 26.0642 22.2703C26.4092 22.2703 26.6555 22.1472 26.8033 21.9254V22.221H27.3206V21.0385ZM25.4238 21.0385C25.4238 20.6197 25.6947 20.2749 26.1382 20.2749C26.557 20.2749 26.8526 20.5952 26.8526 21.0385C26.8526 21.4573 26.557 21.8022 26.1382 21.8022C25.6947 21.7775 25.4238 21.4573 25.4238 21.0385ZM8.12975 21.0385V19.8561H7.61241V20.1517C7.43992 19.93 7.1936 19.8068 6.87332 19.8068C6.20819 19.8068 5.69085 20.3241 5.69085 21.0385C5.69085 21.7529 6.20819 22.2703 6.87332 22.2703C7.21829 22.2703 7.46461 22.1472 7.61241 21.9254V22.221H8.12975V21.0385ZM6.20819 21.0385C6.20819 20.6197 6.4792 20.2749 6.92259 20.2749C7.34139 20.2749 7.6371 20.5952 7.6371 21.0385C7.6371 21.4573 7.34139 21.8022 6.92259 21.8022C6.4792 21.7775 6.20819 21.4573 6.20819 21.0385Z" fill="black"/>
<path d="M10.4702 1.89746H18.2303V15.841H10.4702V1.89746Z" fill="#FF5F00"/>
<path d="M10.9627 8.8687C10.9627 6.03569 12.293 3.52284 14.3377 1.89687C12.835 0.714398 10.9382 0 8.86882 0C3.96622 0 0 3.96622 0 8.8687C0 13.7711 3.96622 17.7374 8.8687 17.7374C10.9381 17.7374 12.8349 17.023 14.3377 15.8404C12.293 14.2391 10.9627 11.7017 10.9627 8.8687Z" fill="#EB001B"/>
<path d="M28.7 8.8687C28.7 13.7711 24.7338 17.7374 19.8313 17.7374C17.7619 17.7374 15.8651 17.023 14.3623 15.8404C16.4317 14.2146 17.7373 11.7017 17.7373 8.8687C17.7373 6.03569 16.407 3.52284 14.3623 1.89687C15.8649 0.714398 17.7619 0 19.8313 0C24.7338 0 28.7001 3.99091 28.7001 8.8687H28.7Z" fill="#F79E1B"/>
</svg>
