<svg width="38" height="16" viewBox="0 0 38 16" fill="none" xmlns="http://www.w3.org/2000/svg">
    <mask id="mask0_301_3267" style="mask-type:luminance" maskUnits="userSpaceOnUse" x="0" y="0" width="38" height="16">
        <path d="M37.9595 0H0.959473V16H37.9595V0Z" fill="white"/>
    </mask>
    <g mask="url(#mask0_301_3267)">
        <path d="M7.7232 2.06279C7.28961 2.60324 6.59586 3.0295 5.90211 2.96861C5.81539 2.23786 6.15504 1.46147 6.5525 0.981925C6.98609 0.426265 7.74488 0.030447 8.35914 0C8.4314 0.761175 8.14957 1.50713 7.7232 2.06279ZM8.35191 3.11322C7.34742 3.05234 6.48746 3.71455 6.01051 3.71455C5.52633 3.71455 4.79644 3.14368 4.00152 3.1589C2.96812 3.17411 2.00699 3.79067 1.47945 4.77259C0.395468 6.73644 1.19762 9.64412 2.24547 11.2426C2.75855 12.0342 3.37281 12.902 4.18219 12.8715C4.9482 12.8411 5.25172 12.3463 6.17672 12.3463C7.10894 12.3463 7.37633 12.8715 8.1857 12.8563C9.02398 12.8411 9.55152 12.0647 10.0646 11.273C10.65 10.3749 10.8884 9.49953 10.9028 9.45382C10.8884 9.43863 9.28414 8.79163 9.26969 6.84301C9.25523 5.21409 10.5343 4.43767 10.5922 4.392C9.86949 3.26547 8.74215 3.14368 8.35191 3.11322ZM14.1548 0.905805V12.7726H15.9036V8.7155H18.3245C20.5359 8.7155 22.0896 7.11703 22.0896 4.80304C22.0896 2.48905 20.5648 0.905805 18.3823 0.905805H14.1548ZM15.9036 2.45862H17.9198C19.4374 2.45862 20.3046 3.31114 20.3046 4.81066C20.3046 6.31018 19.4374 7.17031 17.9126 7.17031H15.9036V2.45862ZM25.2837 12.8639C26.3821 12.8639 27.4011 12.2778 27.8636 11.3492H27.8997V12.7726H29.5185V6.86585C29.5185 5.15319 28.2177 4.04948 26.2159 4.04948C24.3587 4.04948 22.9857 5.16842 22.9351 6.706H24.5105C24.6405 5.97527 25.2837 5.49572 26.1653 5.49572C27.2349 5.49572 27.8347 6.02094 27.8347 6.98764V7.64225L25.6523 7.77925C23.6216 7.90865 22.5232 8.78401 22.5232 10.3063C22.5232 11.8439 23.6577 12.8639 25.2837 12.8639ZM25.7534 11.4557C24.8212 11.4557 24.2286 10.9838 24.2286 10.2607C24.2286 9.51472 24.7995 9.08088 25.8907 9.01237L27.8347 8.88297V9.55282C27.8347 10.6641 26.9386 11.4557 25.7534 11.4557ZM31.6792 16C33.3847 16 34.1868 15.3149 34.8878 13.2369L37.9591 4.16365H36.1814L34.1218 11.1741H34.0857L32.0261 4.16365H30.1978L33.1607 12.803L33.0017 13.3282C32.7343 14.2188 32.3007 14.5613 31.5275 14.5613C31.3902 14.5613 31.1228 14.5461 31.0144 14.5309V15.9543C31.1155 15.9848 31.5491 16 31.6792 16Z" fill="white"/>
    </g>
</svg>
