<svg width="47" height="15" viewBox="0 0 47 15" fill="none" xmlns="http://www.w3.org/2000/svg">
<path d="M24.0607 4.89964C24.0344 6.96784 25.9058 8.12191 27.3155 8.80814C28.7638 9.51215 29.2503 9.96365 29.2445 10.5933C29.2338 11.5568 28.0893 11.9821 27.0183 11.9986C25.1498 12.0275 24.0634 11.4947 23.1997 11.0917L22.5266 14.238C23.3931 14.6369 24.9977 14.9847 26.6616 15C30.5674 15 33.1227 13.074 33.1365 10.0879C33.1518 6.29814 27.889 6.08837 27.9249 4.39444C27.9373 3.88081 28.428 3.33269 29.5031 3.19332C30.0352 3.12292 31.5042 3.06904 33.1698 3.83519L33.8235 0.791073C32.9278 0.46529 31.7766 0.153335 30.3434 0.153335C26.6672 0.153335 24.0815 2.10552 24.0607 4.89964ZM40.1047 0.415542C39.3915 0.415542 38.7905 0.831121 38.5223 1.46886L32.9431 14.7764H36.846L37.6227 12.6322H42.392L42.8425 14.7764H46.2825L43.2806 0.415542H40.1047ZM40.6507 4.29495L41.7771 9.68761H38.6924L40.6507 4.29495ZM19.3286 0.415721L16.2521 14.7762H19.9713L23.0463 0.415362H19.3286V0.415721ZM13.8266 0.415362L9.95553 10.1901L8.38962 1.87905C8.20588 0.95127 7.48027 0.415542 6.67448 0.415542H0.346446L0.257812 0.832559C1.55693 1.11416 3.03296 1.56835 3.9272 2.05434C4.47446 2.3512 4.63052 2.61072 4.8103 3.31616L7.77619 14.7764H11.7064L17.7321 0.415542H13.8266" fill="url(#paint0_linear_1440_18414)"/>
<defs>
<linearGradient id="paint0_linear_1440_18414" x1="21.4172" y1="15.2978" x2="21.8465" y2="0.0500557" gradientUnits="userSpaceOnUse">
<stop stop-color="#222357"/>
<stop offset="1" stop-color="#254AA5"/>
</linearGradient>
</defs>
</svg>
