<svg
     width="20"
     height="24"
     viewBox="0 0 20 24"
     fill="none"
     xmlns="http://www.w3.org/2000/svg">
    <path fill-rule="evenodd" clip-rule="evenodd"
          d="M4 7.33333C4 5.74203 4.63214 4.21591 5.75736 3.09069C6.88258 1.96547 8.4087 1.33333 10 1.33333C11.5913 1.33333 13.1174 1.96547 14.2426 3.09069C15.3679 4.21591 16 5.74203 16 7.33333V8H17.3333V7.33333C17.3333 3.28333 14.05 0 10 0C5.95 0 2.66667 3.28333 2.66667 7.33333V8H4V7.33333ZM14.6667 8V7.33333C14.6667 6.7205 14.546 6.11366 14.3114 5.54748C14.0769 4.98129 13.7332 4.46684 13.2998 4.0335C12.8665 3.60016 12.352 3.25642 11.7859 3.0219C11.2197 2.78737 10.6128 2.66667 10 2.66667C9.38716 2.66667 8.78033 2.78737 8.21414 3.0219C7.64796 3.25642 7.13351 3.60016 6.70017 4.0335C6.26683 4.46684 5.92308 4.98129 5.68856 5.54748C5.45404 6.11366 5.33333 6.7205 5.33333 7.33333V8H6.66667V7.33333C6.66667 6.44928 7.01786 5.60143 7.64298 4.97631C8.2681 4.35119 9.11594 4 10 4C10.8841 4 11.7319 4.35119 12.357 4.97631C12.9821 5.60143 13.3333 6.44928 13.3333 7.33333V8H14.6667ZM5.33333 9.33333H18.6667V22.6667H1.33333V9.33333H4V8H1.33333C0.979711 8 0.640573 8.14048 0.390525 8.39052C0.140476 8.64057 0 8.97971 0 9.33333V22.6667C0 23.0203 0.140476 23.3594 0.390525 23.6095C0.640573 23.8595 0.979711 24 1.33333 24H18.6667C19.0203 24 19.3594 23.8595 19.6095 23.6095C19.8595 23.3594 20 23.0203 20 22.6667V9.33333C20 8.97971 19.8595 8.64057 19.6095 8.39052C19.3594 8.14048 19.0203 8 18.6667 8H5.33333V9.33333Z"
          fill="#FAFAFA"/>
    <path fill-rule="evenodd" clip-rule="evenodd"
          d="M16 13.3333H4V12H16V13.3333ZM16 16.6667H4V15.3333H16V16.6667ZM16 20H4V18.6667H16V20Z" fill="#FAFAFA"/>
</svg>